<svg width="116" height="20" viewBox="0 0 116 20" fill="none" xmlns="http://www.w3.org/2000/svg">
<g clip-path="url(#clip0_3107_16530)">
<g clip-path="url(#clip1_3107_16530)">
<path d="M9.30641 16.5614C9.66969 16.3421 10.1245 16.3421 10.4878 16.5614L14.2242 18.8166C15.0899 19.3391 16.1579 18.5629 15.9281 17.5782L14.9364 13.3283C14.84 12.915 14.9804 12.4824 15.3012 12.2045L18.6039 9.34346C19.3682 8.68137 18.9596 7.42591 17.952 7.34046L13.6061 6.97187C13.1836 6.93604 12.8157 6.66932 12.6503 6.27895L10.9496 2.26652C10.5557 1.33718 9.23855 1.33717 8.84464 2.26652L7.14396 6.27895C6.9785 6.66932 6.61056 6.93604 6.18809 6.97187L1.84221 7.34046C0.834628 7.42591 0.426052 8.68137 1.19035 9.34346L4.49303 12.2045C4.81377 12.4824 4.9542 12.915 4.85777 13.3283L3.86613 17.5782C3.63636 18.5629 4.70431 19.3391 5.57002 18.8166L9.30641 16.5614Z" fill="#FFCA64"/>
</g>
<g clip-path="url(#clip2_3107_16530)">
<path d="M33.3578 16.5614C33.7211 16.3421 34.1759 16.3421 34.5392 16.5614L38.2756 18.8166C39.1413 19.3391 40.2093 18.5629 39.9795 17.5782L38.9879 13.3283C38.8914 12.915 39.0319 12.4824 39.3526 12.2045L42.6553 9.34348C43.4196 8.68138 43.011 7.42593 42.0034 7.34047L37.6575 6.97189C37.2351 6.93606 36.8671 6.66934 36.7017 6.27897L35.001 2.26654C34.6071 1.33719 33.29 1.33719 32.8961 2.26654L31.1954 6.27897C31.0299 6.66934 30.662 6.93606 30.2395 6.97189L25.8936 7.34047C24.886 7.42593 24.4775 8.68138 25.2418 9.34348L28.5444 12.2045C28.8652 12.4824 29.0056 12.915 28.9092 13.3283L27.9175 17.5782C27.6878 18.5629 28.7557 19.3391 29.6214 18.8166L33.3578 16.5614Z" fill="#FFCA64"/>
</g>
<g clip-path="url(#clip3_3107_16530)">
<path d="M57.4092 16.5614C57.7725 16.3421 58.2273 16.3421 58.5906 16.5614L62.327 18.8166C63.1927 19.3391 64.2607 18.5629 64.0309 17.5782L63.0393 13.3283C62.9428 12.915 63.0833 12.4824 63.404 12.2045L66.7067 9.34348C67.471 8.68138 67.0624 7.42593 66.0548 7.34047L61.7089 6.97189C61.2865 6.93606 60.9185 6.66934 60.7531 6.27897L59.0524 2.26654C58.6585 1.33719 57.3414 1.33719 56.9475 2.26654L55.2468 6.27897C55.0813 6.66934 54.7134 6.93606 54.2909 6.97189L49.945 7.34047C48.9374 7.42593 48.5289 8.68138 49.2932 9.34348L52.5959 12.2045C52.9166 12.4824 53.057 12.915 52.9606 13.3283L51.9689 17.5782C51.7392 18.5629 52.8071 19.3391 53.6728 18.8166L57.4092 16.5614Z" fill="#FFCA64"/>
</g>
<g clip-path="url(#clip4_3107_16530)">
<path d="M81.4607 16.5614C81.8239 16.3421 82.2788 16.3421 82.642 16.5614L86.3784 18.8166C87.2441 19.3391 88.3121 18.5629 88.0823 17.5782L87.0907 13.3283C86.9942 12.915 87.1347 12.4824 87.4554 12.2045L90.7581 9.34348C91.5224 8.68138 91.1138 7.42593 90.1062 7.34047L85.7604 6.97189C85.3379 6.93606 84.97 6.66934 84.8045 6.27897L83.1038 2.26654C82.7099 1.33719 81.3928 1.33719 80.9989 2.26654L79.2982 6.27897C79.1327 6.66934 78.7648 6.93606 78.3423 6.97189L73.9964 7.34047C72.9889 7.42593 72.5803 8.68138 73.3446 9.34348L76.6473 12.2045C76.968 12.4824 77.1084 12.915 77.012 13.3283L76.0204 17.5782C75.7906 18.5629 76.8585 19.3391 77.7243 18.8166L81.4607 16.5614Z" fill="#FFCA64"/>
</g>
<g clip-path="url(#clip5_3107_16530)">
<path d="M105.512 16.5614C105.875 16.3421 106.33 16.3421 106.693 16.5614L110.43 18.8166C111.296 19.3391 112.363 18.5629 112.134 17.5782L111.142 13.3283C111.046 12.915 111.186 12.4824 111.507 12.2045L114.809 9.34348C115.574 8.68138 115.165 7.42593 114.158 7.34047L109.812 6.97189C109.389 6.93606 109.021 6.66934 108.856 6.27897L107.155 2.26654C106.761 1.33719 105.444 1.33719 105.05 2.26654L103.35 6.27897C103.184 6.66934 102.816 6.93606 102.394 6.97189L98.0479 7.34047C97.0403 7.42593 96.6317 8.68138 97.396 9.34348L100.699 12.2045C101.019 12.4824 101.16 12.915 101.063 13.3283L100.072 17.5782C99.842 18.5629 100.91 19.3391 101.776 18.8166L105.512 16.5614Z" fill="#FFCA64"/>
</g>
</g>
<defs>
<clipPath id="clip0_3107_16530">
<rect width="116" height="20" fill="white"/>
</clipPath>
<clipPath id="clip1_3107_16530">
<rect width="18.5754" height="18.5754" fill="white" transform="translate(0.609467 0.71228)"/>
</clipPath>
<clipPath id="clip2_3107_16530">
<rect width="18.5754" height="18.5754" fill="white" transform="translate(24.6609 0.712296)"/>
</clipPath>
<clipPath id="clip3_3107_16530">
<rect width="18.5754" height="18.5754" fill="white" transform="translate(48.7123 0.712296)"/>
</clipPath>
<clipPath id="clip4_3107_16530">
<rect width="18.5754" height="18.5754" fill="white" transform="translate(72.7637 0.712296)"/>
</clipPath>
<clipPath id="clip5_3107_16530">
<rect width="18.5754" height="18.5754" fill="white" transform="translate(96.8151 0.712296)"/>
</clipPath>
</defs>
</svg>
