<svg width="64" height="64" viewBox="0 0 64 64" fill="none" xmlns="http://www.w3.org/2000/svg">
<g clip-path="url(#clip0_3140_17293)">
<circle cx="32" cy="32" r="32" fill="white"/>
<path d="M38.5826 23.2285H25.417V29.8071H38.5826V23.2285Z" stroke="black" stroke-width="2" stroke-linecap="round" stroke-linejoin="round"/>
<path d="M42.9712 44.0605V19.9392C42.9712 19.3337 42.48 18.8428 41.8741 18.8428H22.1257C21.5197 18.8428 21.0285 19.3337 21.0285 19.9392V44.0605C21.0285 44.6661 21.5197 45.157 22.1257 45.157H41.8741C42.48 45.157 42.9712 44.6661 42.9712 44.0605Z" stroke="black" stroke-width="2" stroke-linecap="round" stroke-linejoin="round"/>
<path d="M26.5144 36.3856C27.4232 36.3856 28.1601 35.6493 28.1601 34.741C28.1601 33.8326 27.4232 33.0963 26.5144 33.0963C25.6055 33.0963 24.8687 33.8326 24.8687 34.741C24.8687 35.6493 25.6055 36.3856 26.5144 36.3856Z" fill="black"/>
<path d="M31.9997 36.3856C32.9086 36.3856 33.6454 35.6493 33.6454 34.741C33.6454 33.8326 32.9086 33.0963 31.9997 33.0963C31.0908 33.0963 30.354 33.8326 30.354 34.741C30.354 35.6493 31.0908 36.3856 31.9997 36.3856Z" fill="black"/>
<path d="M37.4855 36.3856C38.3944 36.3856 39.1312 35.6493 39.1312 34.741C39.1312 33.8326 38.3944 33.0963 37.4855 33.0963C36.5766 33.0963 35.8398 33.8326 35.8398 34.741C35.8398 35.6493 36.5766 36.3856 37.4855 36.3856Z" fill="black"/>
<path d="M26.5144 41.8678C27.4232 41.8678 28.1601 41.1314 28.1601 40.2231C28.1601 39.3148 27.4232 38.5785 26.5144 38.5785C25.6055 38.5785 24.8687 39.3148 24.8687 40.2231C24.8687 41.1314 25.6055 41.8678 26.5144 41.8678Z" fill="black"/>
<path d="M31.9997 41.8678C32.9086 41.8678 33.6454 41.1314 33.6454 40.2231C33.6454 39.3148 32.9086 38.5785 31.9997 38.5785C31.0908 38.5785 30.354 39.3148 30.354 40.2231C30.354 41.1314 31.0908 41.8678 31.9997 41.8678Z" fill="black"/>
<path d="M37.4855 41.8678C38.3944 41.8678 39.1312 41.1314 39.1312 40.2231C39.1312 39.3148 38.3944 38.5785 37.4855 38.5785C36.5766 38.5785 35.8398 39.3148 35.8398 40.2231C35.8398 41.1314 36.5766 41.8678 37.4855 41.8678Z" fill="black"/>
</g>
<defs>
<clipPath id="clip0_3140_17293">
<rect width="64" height="64" fill="white"/>
</clipPath>
</defs>
</svg>
