<svg width="284" height="140" viewBox="0 0 284 140" fill="none" xmlns="http://www.w3.org/2000/svg">
<g clip-path="url(#clip0_3112_16703)">
<rect opacity="0.3" width="284" height="140" rx="8" fill="#F0F0F0"/>
<path d="M72.6544 53.9583C74.0837 53.9583 75.403 54.0693 76.6124 54.398C77.8217 54.6179 78.8112 55.0577 79.6908 55.6074C80.5703 56.1571 81.23 56.9267 81.6697 57.9173C82.1095 58.9057 82.3294 60.1161 82.3294 61.4354C82.3294 62.9735 81.9995 64.294 81.23 65.2834C80.5703 66.2718 79.4709 67.1514 78.1516 67.811C80.0206 68.3607 81.4498 69.3491 82.3294 70.6695C83.2089 71.9888 83.7586 73.638 83.7586 75.507C83.7586 77.0451 83.4288 78.3655 82.8791 79.4649C82.3294 80.5644 81.4498 81.5538 80.4604 82.2135C79.4709 82.8743 78.2615 83.424 76.9422 83.7527C75.6229 84.0814 74.3036 84.3024 72.9843 84.3024H58.252V53.9583H72.6544ZM71.7749 66.2718C72.9843 66.2718 73.9737 65.942 74.7433 65.3923C75.5129 64.8426 75.8428 63.8531 75.8428 62.6437C75.8428 61.9841 75.7328 61.3244 75.5129 60.8846C75.2931 60.4449 74.9632 60.115 74.5235 59.7852C74.0837 59.5653 73.6439 59.3454 73.0942 59.2355C72.5445 59.1256 71.9948 59.1256 71.3351 59.1256H64.9585V66.2718H71.7749V66.2718ZM72.1047 79.245C72.7644 79.245 73.424 79.1351 73.9737 79.0263C74.5235 78.9152 75.0732 78.6953 75.5129 78.3655C75.9527 78.0357 76.2825 77.7058 76.6124 77.1561C76.8322 76.6064 77.0521 75.9457 77.0521 75.1772C77.0521 73.638 76.6124 72.5385 75.7328 71.7678C74.8533 71.1082 73.6439 70.7795 72.2147 70.7795H64.9585V79.245H72.1047ZM93.3236 79.1351C94.2032 80.0146 95.5225 80.4544 97.2816 80.4544C98.4909 80.4544 99.5904 80.1246 100.47 79.5749C101.349 78.9141 101.899 78.2556 102.119 77.5948H107.506C106.627 80.2334 105.307 82.1036 103.548 83.3118C101.789 84.4112 99.7003 85.072 97.1716 85.072C95.4125 85.072 93.8733 84.7411 92.4441 84.1914C91.0148 83.6416 89.9154 82.8731 88.9259 81.7737C87.9364 80.7842 87.1669 79.5749 86.7271 78.1445C86.1774 76.7153 85.9575 75.1772 85.9575 73.417C85.9575 71.7678 86.1774 70.2298 86.7271 68.7994C87.2768 67.3701 88.0464 66.1619 89.0359 65.0625C90.0254 64.073 91.2347 63.1934 92.554 62.6437C93.9833 62.094 95.4125 61.7642 97.1716 61.7642C99.0407 61.7642 100.69 62.094 102.119 62.8636C103.548 63.6332 104.648 64.5127 105.527 65.8321C106.407 67.0414 107.066 68.4696 107.506 70.0099C107.726 71.5491 107.836 73.0883 107.726 74.8473H91.7844C91.7844 76.6064 92.4441 78.2556 93.3236 79.1351V79.1351ZM100.25 67.5911C99.4804 66.8215 98.2711 66.3818 96.8418 66.3818C95.8523 66.3818 95.0827 66.6005 94.4231 66.9315C93.7634 67.2613 93.3236 67.7 92.8839 68.1408C92.4441 68.5817 92.2242 69.1303 92.1143 69.68C92.0043 70.2298 91.8944 70.6684 91.8944 71.1093H101.789C101.569 69.4602 101.02 68.3607 100.25 67.5911ZM116.302 53.9583V65.3923H116.412C117.181 64.073 118.171 63.1934 119.38 62.6437C120.589 62.094 121.689 61.7642 122.898 61.7642C124.547 61.7642 125.867 61.9841 126.856 62.4238C127.846 62.8636 128.725 63.5233 129.275 64.2929C129.825 65.0625 130.264 66.0519 130.484 67.1514C130.704 68.2508 130.814 69.4613 130.814 70.8894V84.4123H124.767V71.9888C124.767 70.1198 124.437 68.8005 123.888 67.921C123.338 67.0414 122.348 66.6016 120.919 66.6016C119.27 66.6016 118.061 67.1514 117.401 68.032C116.631 69.0204 116.302 70.6695 116.302 72.8684V84.4123H110.255V53.9583H116.302ZM135.212 65.6122C135.871 64.6227 136.641 63.963 137.63 63.3023C138.62 62.7526 139.719 62.3139 140.929 62.0929C142.138 61.873 143.346 61.7631 144.557 61.7631C145.656 61.7631 146.756 61.873 147.966 61.983C149.066 62.0929 150.165 62.4216 151.043 62.8625C152.033 63.3012 152.693 63.9619 153.353 64.7315C153.902 65.5022 154.232 66.6016 154.232 67.921V79.4649C154.232 80.4544 154.342 81.4439 154.452 82.3245C154.563 83.2041 154.89 83.9737 155.221 84.4123H149.065C148.844 84.1925 148.734 83.7527 148.625 83.424C148.515 83.093 148.515 82.6544 148.515 82.3245C147.525 83.3129 146.426 83.9737 145.107 84.4123C143.787 84.8521 142.468 84.9621 141.149 84.9621C140.049 84.9621 139.17 84.8521 138.18 84.5234C137.301 84.3035 136.531 83.8626 135.761 83.3129C135.102 82.7632 134.552 82.1036 134.112 81.2251C133.783 80.3445 133.563 79.4649 133.563 78.2556C133.563 77.0451 133.783 75.9457 134.222 75.1772C134.662 74.4076 135.212 73.7479 135.871 73.1982C136.531 72.7595 137.411 72.3187 138.29 72.0988C139.17 71.88 140.049 71.6601 141.039 71.5491L143.677 71.2192C144.557 71.1093 145.326 70.9994 145.986 70.8894C146.646 70.6695 147.196 70.4496 147.635 70.1198C148.075 69.79 148.185 69.3502 148.185 68.6906C148.185 68.0309 148.075 67.4812 147.855 67.1514C147.635 66.8215 147.305 66.4917 146.976 66.2718C146.645 66.0519 146.206 65.942 145.766 65.8331C145.326 65.7221 144.777 65.7221 144.227 65.7221C143.018 65.7221 142.138 65.942 141.478 66.4917C140.819 67.0414 140.379 67.921 140.269 69.0204H134.222C134.222 67.7011 134.662 66.4917 135.212 65.6122V65.6122ZM147.194 74.1877C146.866 74.2976 146.426 74.4076 145.985 74.5175C145.545 74.6286 145.105 74.6286 144.556 74.7374C144.117 74.8473 143.567 74.8473 143.127 74.9573L141.807 75.2871C141.367 75.3971 140.928 75.6169 140.708 75.8368C140.378 76.0567 140.158 76.3865 139.938 76.7164C139.609 77.1561 139.609 77.5959 139.609 78.1456C139.609 78.6953 139.719 79.1351 139.939 79.4649C140.159 79.7948 140.379 80.1257 140.709 80.3445C141.039 80.5644 141.478 80.6754 141.918 80.7842C142.358 80.8931 142.797 80.8942 143.346 80.8942C144.557 80.8942 145.435 80.6754 146.095 80.3445C146.756 79.9058 147.194 79.4649 147.525 78.9152C147.855 78.3655 148.075 77.8158 148.075 77.2661C148.185 76.7164 148.185 76.2777 148.185 75.9468V73.638C147.855 73.8579 147.525 74.0788 147.194 74.1877ZM163.358 62.3139V65.3923H163.468C164.237 64.073 165.227 63.1934 166.435 62.6437C167.646 62.094 168.965 61.7642 170.174 61.7642C171.823 61.7642 173.142 61.9841 174.131 62.4238C175.231 62.8636 176.002 63.5233 176.551 64.2929C177.101 65.0625 177.54 66.0519 177.869 67.1514C178.089 68.2508 178.2 69.4613 178.2 70.8894V84.4123H172.154V71.9888C172.154 70.1198 171.823 68.8005 171.273 67.921C170.723 67.0414 169.734 66.4917 168.195 66.4917C166.545 66.4917 165.335 67.1514 164.566 68.1408C163.797 69.1303 163.467 70.7795 163.467 72.9783V84.5223H157.42V62.3139H163.358ZM191.721 66.2718C190.733 66.2718 189.962 66.4917 189.304 66.9326C188.644 67.3712 188.094 67.921 187.654 68.6917C187.215 69.3513 186.995 70.1209 186.774 71.0005C186.555 71.8811 186.555 72.6496 186.555 73.5302C186.555 74.2987 186.665 75.1794 186.774 75.9479C186.995 76.8285 187.213 77.4871 187.654 78.1467C188.094 78.8075 188.534 79.3572 189.194 79.7959C189.853 80.2356 190.622 80.4566 191.611 80.4566C193.042 80.4566 194.141 80.0168 195.019 79.2461C195.79 78.4776 196.34 77.3782 196.45 75.9479H202.277C201.838 78.9163 200.739 81.1152 198.867 82.6555C196.999 84.1936 194.581 84.9643 191.611 84.9643C189.962 84.9643 188.423 84.6344 187.104 84.0847C185.673 83.535 184.574 82.7654 183.585 81.7759C182.597 80.7864 181.825 79.5771 181.276 78.2578C180.726 76.8285 180.507 75.3982 180.507 73.749C180.507 71.9899 180.726 70.4507 181.276 69.0215C181.825 67.5922 182.486 66.2729 183.474 65.1735C184.464 64.0741 185.673 63.3045 186.994 62.6448C188.422 62.0951 189.961 61.7653 191.72 61.7653C193.04 61.7653 194.25 61.9852 195.458 62.315C196.666 62.6448 197.767 63.1945 198.646 63.8531C199.636 64.5138 200.406 65.3923 200.955 66.4917C201.505 67.4812 201.836 68.8005 201.945 70.2298H196.008C195.791 67.5911 194.361 66.2718 191.721 66.2718V66.2718ZM90.5751 56.0472H102.889V59.0156H90.5751V56.0472ZM211.402 79.1351C212.283 80.0146 213.711 80.4544 215.36 80.4544C216.57 80.4544 217.67 80.1246 218.548 79.5749C219.429 78.9141 219.979 78.2556 220.197 77.5948H225.476C224.595 80.2334 223.277 82.1036 221.517 83.3118C219.757 84.4112 217.669 85.072 215.14 85.072C213.381 85.072 211.842 84.7411 210.411 84.1914C209.058 83.6868 207.85 82.8564 206.894 81.7737C205.905 80.7842 205.135 79.5749 204.695 78.1445C204.146 76.7153 203.926 75.1772 203.926 73.417C203.926 71.7678 204.146 70.2298 204.695 68.7994C205.225 67.4205 206.008 66.153 207.004 65.0625C207.994 64.073 209.203 63.1934 210.522 62.6437C211.952 62.094 213.491 61.7642 215.14 61.7642C217.008 61.7642 218.657 62.094 219.977 62.8636C221.406 63.6332 222.505 64.5127 223.386 65.8321C224.265 67.0414 224.925 68.4696 225.365 70.0099C225.803 71.548 225.914 73.1971 225.803 74.9573H209.862C209.862 76.6064 210.522 78.2556 211.402 79.1351V79.1351ZM218.438 67.5911C217.669 66.8215 216.458 66.3818 215.03 66.3818C214.041 66.3818 213.27 66.6005 212.61 66.9315C211.951 67.2613 211.401 67.7 211.072 68.1408C210.743 68.5817 210.411 69.1303 210.303 69.68C210.194 70.2298 210.084 70.6684 210.084 71.1093H219.979C219.648 69.4602 219.098 68.3607 218.438 67.5911Z" fill="#969DA0"/>
</g>
<defs>
<clipPath id="clip0_3112_16703">
<rect width="284" height="140" fill="white"/>
</clipPath>
</defs>
</svg>
