<svg width="80" height="80" viewBox="0 0 80 80" fill="none" xmlns="http://www.w3.org/2000/svg">
<g clip-path="url(#clip0_3209_27677)">
<g filter="url(#filter0_d_3209_27677)">
<path d="M0 0H80V80H0V0Z" fill="white"/>
<path fill-rule="evenodd" clip-rule="evenodd" d="M56.3055 30.0651C59.8267 30.0651 62.6813 27.2105 62.6813 23.6893C62.6813 20.168 59.8267 17.3135 56.3055 17.3135C52.7842 17.3135 49.9297 20.168 49.9297 23.6893C49.9297 27.2105 52.7842 30.0651 56.3055 30.0651Z" fill="#8055FA"/>
<path fill-rule="evenodd" clip-rule="evenodd" d="M56.3055 46.0784C59.8267 46.0784 62.6813 43.2239 62.6813 39.7028C62.6813 36.1816 59.8267 33.3271 56.3055 33.3271C52.7842 33.3271 49.9297 36.1816 49.9297 39.7028C49.9297 43.2239 52.7842 46.0784 56.3055 46.0784Z" fill="#7550FB"/>
<path fill-rule="evenodd" clip-rule="evenodd" d="M56.3055 62.6862C59.8267 62.6862 62.6813 59.8316 62.6813 56.3104C62.6813 52.7891 59.8267 49.9346 56.3055 49.9346C52.7842 49.9346 49.9297 52.7891 49.9297 56.3104C49.9297 59.8316 52.7842 62.6862 56.3055 62.6862Z" fill="#6A4AFC"/>
<path fill-rule="evenodd" clip-rule="evenodd" d="M39.7037 46.0784C43.2249 46.0784 46.0793 43.2239 46.0793 39.7028C46.0793 36.1816 43.2249 33.3271 39.7037 33.3271C36.1826 33.3271 33.3281 36.1816 33.3281 39.7028C33.3281 43.2239 36.1826 46.0784 39.7037 46.0784Z" fill="#6045FD"/>
<path fill-rule="evenodd" clip-rule="evenodd" d="M39.7037 62.6862C43.2249 62.6862 46.0793 59.8316 46.0793 56.3104C46.0793 52.7891 43.2249 49.9346 39.7037 49.9346C36.1826 49.9346 33.3281 52.7891 33.3281 56.3104C33.3281 59.8316 36.1826 62.6862 39.7037 62.6862Z" fill="#553FFE"/>
<path fill-rule="evenodd" clip-rule="evenodd" d="M23.6883 62.6862C27.2096 62.6862 30.0641 59.8316 30.0641 56.3104C30.0641 52.7891 27.2096 49.9346 23.6883 49.9346C20.167 49.9346 17.3125 52.7891 17.3125 56.3104C17.3125 59.8316 20.167 62.6862 23.6883 62.6862Z" fill="#4A3AFF"/>
</g>
</g>
<defs>
<filter id="filter0_d_3209_27677" x="-28" y="-20" width="136" height="136" filterUnits="userSpaceOnUse" color-interpolation-filters="sRGB">
<feFlood flood-opacity="0" result="BackgroundImageFix"/>
<feColorMatrix in="SourceAlpha" type="matrix" values="0 0 0 0 0 0 0 0 0 0 0 0 0 0 0 0 0 0 127 0" result="hardAlpha"/>
<feOffset dy="8"/>
<feGaussianBlur stdDeviation="14"/>
<feComposite in2="hardAlpha" operator="out"/>
<feColorMatrix type="matrix" values="0 0 0 0 0.078875 0 0 0 0 0.0770833 0 0 0 0 0.166667 0 0 0 0.1 0"/>
<feBlend mode="normal" in2="BackgroundImageFix" result="effect1_dropShadow_3209_27677"/>
<feBlend mode="normal" in="SourceGraphic" in2="effect1_dropShadow_3209_27677" result="shape"/>
</filter>
<clipPath id="clip0_3209_27677">
<rect width="80" height="80" fill="white"/>
</clipPath>
</defs>
</svg>
