<svg width="64" height="64" viewBox="0 0 64 64" fill="none" xmlns="http://www.w3.org/2000/svg">
<g clip-path="url(#clip0_3140_17294)">
<circle cx="32" cy="32" r="32" fill="white"/>
<path d="M22.2707 41.3077C21.1093 40.1465 21.8794 37.7107 21.2861 36.2846C20.6927 34.8585 18.4204 33.609 18.4204 32.0314C18.4204 30.4538 20.6675 29.2549 21.2861 27.7782C21.9046 26.3016 21.1093 23.9163 22.2707 22.7552C23.4321 21.5941 25.8686 22.364 27.2951 21.7708C28.7216 21.1776 29.9714 18.9059 31.5494 18.9059C33.1274 18.9059 34.3266 21.1524 35.8037 21.7708C37.2807 22.3892 39.6666 21.5941 40.828 22.7552C41.9894 23.9163 41.2194 26.3521 41.8127 27.7782C42.406 29.2044 44.6783 30.4538 44.6783 32.0314C44.6783 33.609 42.4313 34.808 41.8127 36.2846C41.1941 37.7612 41.9894 40.1465 40.828 41.3077C39.6666 42.4688 37.2302 41.6989 35.8037 42.2921C34.3771 42.8852 33.1274 45.157 31.5494 45.157C29.9714 45.157 28.7721 42.9105 27.2951 42.2921C25.8181 41.6737 23.4321 42.4688 22.2707 41.3077Z" stroke="black" stroke-width="2" stroke-linecap="round" stroke-linejoin="round"/>
<path d="M37.1037 29.0026L29.6935 36.0702L25.9946 32.5364" stroke="black" stroke-width="2" stroke-linecap="round" stroke-linejoin="round"/>
</g>
<defs>
<clipPath id="clip0_3140_17294">
<rect width="64" height="64" fill="white"/>
</clipPath>
</defs>
</svg>
