<svg width="64" height="64" viewBox="0 0 64 64" fill="none" xmlns="http://www.w3.org/2000/svg">
<g clip-path="url(#clip0_3174_19594)">
<circle cx="32" cy="32" r="32" fill="white"/>
<path d="M45.2565 38.8056V25.1949C45.2554 24.9983 45.2025 24.8055 45.1032 24.6358C45.0038 24.4662 44.8614 24.3257 44.6904 24.2286L32.5398 17.3957C32.3761 17.3012 32.1903 17.2515 32.0013 17.2515C31.8122 17.2515 31.6265 17.3012 31.4628 17.3957L19.3122 24.2286C19.1412 24.3257 18.9988 24.4662 18.8994 24.6358C18.8 24.8055 18.7471 24.9983 18.7461 25.1949V38.8056C18.7471 39.0022 18.8 39.195 18.8994 39.3647C18.9988 39.5343 19.1412 39.6748 19.3122 39.7718L31.4628 46.6048C31.6265 46.6993 31.8122 46.749 32.0013 46.749C32.1903 46.749 32.3761 46.6993 32.5398 46.6048L44.6904 39.7718C44.8614 39.6748 45.0038 39.5343 45.1032 39.3647C45.2025 39.195 45.2554 39.0022 45.2565 38.8056V38.8056Z" stroke="#0A0F16" stroke-width="2" stroke-linecap="round" stroke-linejoin="round"/>
<path d="M45.1051 24.6292L32.126 32.0004L18.8984 24.6292" stroke="#0A0F16" stroke-width="2" stroke-linecap="round" stroke-linejoin="round"/>
<path d="M32.1262 32L32.002 46.7426" stroke="#0A0F16" stroke-width="2" stroke-linecap="round" stroke-linejoin="round"/>
</g>
<defs>
<clipPath id="clip0_3174_19594">
<rect width="64" height="64" fill="white"/>
</clipPath>
</defs>
</svg>
