<svg width="284" height="140" viewBox="0 0 284 140" fill="none" xmlns="http://www.w3.org/2000/svg">
<g clip-path="url(#clip0_3112_16700)">
<rect opacity="0.3" width="284" height="140" rx="8" fill="#F0F0F0"/>
<path d="M88.4684 55.4178C85.4524 54.0067 82.2275 52.9812 78.856 52.3972C78.4419 53.1458 77.9582 54.1527 77.6247 54.9537C74.0406 54.4147 70.4896 54.4147 66.9715 54.9537C66.638 54.1527 66.1433 53.1458 65.7255 52.3972C62.3504 52.9812 59.1218 54.0105 56.1058 55.4253C50.0224 64.6181 48.3733 73.5825 49.1979 82.4196C53.2327 85.4327 57.1429 87.263 60.9871 88.4608C61.9362 87.1545 62.7828 85.7658 63.512 84.3023C62.1231 83.7746 60.7929 83.1233 59.5359 82.3672C59.8694 82.1202 60.1955 81.8619 60.5107 81.5961C68.1771 85.1819 76.5069 85.1819 84.0818 81.5961C84.4007 81.8619 84.7268 82.1202 85.0566 82.3672C83.7959 83.127 82.462 83.7783 81.0731 84.3061C81.8024 85.7658 82.6453 87.1582 83.5981 88.4645C87.446 87.2667 91.3598 85.4364 95.3946 82.4196C96.3621 72.1751 93.7419 63.293 88.4684 55.4178ZM64.5565 76.9848C62.2551 76.9848 60.3677 74.8363 60.3677 72.22C60.3677 69.6037 62.2148 67.4515 64.5565 67.4515C66.8982 67.4515 68.7855 69.5999 68.7452 72.22C68.7488 74.8363 66.8982 76.9848 64.5565 76.9848ZM80.036 76.9848C77.7346 76.9848 75.8473 74.8363 75.8473 72.22C75.8473 69.6037 77.6943 67.4515 80.036 67.4515C82.3777 67.4515 84.2651 69.5999 84.2248 72.22C84.2248 74.8363 82.3777 76.9848 80.036 76.9848Z" fill="#969DA0"/>
<path d="M111.611 61.5984H121.615C124.027 61.5984 126.064 61.9839 127.735 62.7512C129.402 63.5185 130.652 64.589 131.481 65.9589C132.308 67.3289 132.726 68.8972 132.726 70.6638C132.726 72.3931 132.294 73.9614 131.429 75.365C130.564 76.7723 129.248 77.884 127.479 78.7037C125.709 79.5234 123.517 79.9351 120.897 79.9351H111.611V61.5984ZM120.794 75.2752C122.418 75.2752 123.668 74.8597 124.539 74.0325C125.412 73.2016 125.848 72.0712 125.848 70.6377C125.848 69.3089 125.459 68.2496 124.682 67.4561C123.906 66.6626 122.729 66.2621 121.157 66.2621H118.027V75.2752H120.794Z" fill="#969DA0"/>
<path d="M147.701 79.9128C146.316 79.546 145.066 79.0145 143.956 78.3145V73.9652C144.795 74.6277 145.92 75.1742 147.331 75.6046C148.742 76.0313 150.105 76.2446 151.424 76.2446C152.04 76.2446 152.506 76.1623 152.821 75.9976C153.136 75.8329 153.294 75.6346 153.294 75.4062C153.294 75.1442 153.21 74.9272 153.037 74.7512C152.865 74.5753 152.531 74.4293 152.037 74.3058L148.958 73.5984C147.196 73.1792 145.946 72.599 145.202 71.8542C144.458 71.113 144.088 70.1398 144.088 68.9346C144.088 67.9203 144.41 67.0407 145.063 66.2883C145.711 65.536 146.635 64.9558 147.833 64.5478C149.032 64.1361 150.431 63.9303 152.04 63.9303C153.477 63.9303 154.792 64.0875 155.991 64.4019C157.189 64.7163 158.179 65.1168 158.967 65.6071V69.7207C158.16 69.2303 157.236 68.8448 156.181 68.5528C155.129 68.2646 154.049 68.1224 152.934 68.1224C151.325 68.1224 150.523 68.4031 150.523 68.9608C150.523 69.2229 150.648 69.4175 150.897 69.5485C151.146 69.6795 151.604 69.8142 152.267 69.9565L154.832 70.4281C156.508 70.7238 157.757 71.2441 158.578 71.9851C159.399 72.7263 159.809 73.823 159.809 75.2752C159.809 76.866 159.131 78.1274 157.772 79.0631C156.412 79.9989 154.484 80.4667 151.985 80.4667C150.516 80.463 149.087 80.2796 147.701 79.9128Z" fill="#969DA0"/>
<path d="M165.865 79.3624C164.396 78.6287 163.285 77.6331 162.545 76.3755C161.804 75.1178 161.431 73.703 161.431 72.1309C161.431 70.5589 161.815 69.1516 162.585 67.9126C163.355 66.6737 164.483 65.7005 165.971 64.9931C167.459 64.2857 169.236 63.9338 171.307 63.9338C173.872 63.9338 176.001 64.4841 177.694 65.5845V70.3793C177.097 69.96 176.4 69.6194 175.605 69.3574C174.81 69.0954 173.96 68.9644 173.051 68.9644C171.461 68.9644 170.219 69.2601 169.321 69.8552C168.423 70.4503 167.972 71.2251 167.972 72.1871C167.972 73.1303 168.408 73.9014 169.28 74.5077C170.153 75.1104 171.417 75.4135 173.077 75.4135C173.931 75.4135 174.774 75.2863 175.605 75.0355C176.434 74.781 177.148 74.4703 177.746 74.1035V78.741C175.866 79.8938 173.685 80.4702 171.204 80.4702C169.116 80.4628 167.334 80.096 165.865 79.3624Z" fill="#969DA0"/>
<path d="M184.094 79.3628C182.614 78.6292 181.485 77.626 180.708 76.3497C179.931 75.0733 179.539 73.651 179.539 72.0789C179.539 70.5069 179.928 69.1033 180.708 67.8719C181.489 66.6404 182.61 65.6747 184.084 64.9748C185.553 64.2748 187.308 63.9268 189.342 63.9268C191.376 63.9268 193.131 64.2748 194.601 64.9748C196.071 65.6747 197.192 66.633 197.962 67.8569C198.731 69.0809 199.116 70.4845 199.116 72.0752C199.116 73.6473 198.731 75.0696 197.962 76.3459C197.192 77.6223 196.067 78.6254 194.586 79.359C193.106 80.0927 191.358 80.4595 189.339 80.4595C187.319 80.4595 185.571 80.0964 184.094 79.3628ZM191.889 74.714C192.512 74.0777 192.827 73.2356 192.827 72.1875C192.827 71.1395 192.516 70.3048 191.889 69.6872C191.266 69.0659 190.416 68.7552 189.339 68.7552C188.243 68.7552 187.385 69.0659 186.758 69.6872C186.136 70.3086 185.824 71.1395 185.824 72.1875C185.824 73.2356 186.136 74.0777 186.758 74.714C187.382 75.3503 188.243 75.6722 189.339 75.6722C190.416 75.6685 191.266 75.3503 191.889 74.714Z" fill="#969DA0"/>
<path d="M214.529 64.8998V70.5592C213.877 70.1212 213.034 69.9041 211.99 69.9041C210.622 69.9041 209.567 70.3271 208.834 71.173C208.097 72.019 207.731 73.3364 207.731 75.1181V79.939H201.446V64.6116H207.603V69.485C207.944 67.7033 208.497 66.3895 209.259 65.5398C210.018 64.6939 211 64.271 212.195 64.271C213.1 64.271 213.877 64.4806 214.529 64.8998Z" fill="#969DA0"/>
<path d="M235.408 61.0743V79.9389H229.123V76.5066C228.591 77.798 227.785 78.7824 226.701 79.4561C225.615 80.1261 224.274 80.463 222.684 80.463C221.262 80.463 220.024 80.1111 218.964 79.4037C217.905 78.6963 217.088 77.7269 216.513 76.4954C215.941 75.2639 215.651 73.8716 215.651 72.3145C215.633 70.7088 215.937 69.2677 216.564 67.9914C217.187 66.715 218.07 65.7194 219.206 65.0045C220.342 64.2896 221.64 63.9302 223.095 63.9302C226.089 63.9302 228.097 65.259 229.123 67.9127V61.0743H235.408ZM228.185 74.609C228.826 73.9726 229.145 73.1455 229.145 72.1349C229.145 71.1579 228.833 70.3607 228.21 69.7506C227.587 69.1405 226.733 68.8335 225.66 68.8335C224.601 68.8335 223.754 69.1442 223.12 69.7655C222.486 70.3869 222.171 71.1916 222.171 72.1872C222.171 73.1829 222.486 73.9951 223.12 74.6239C223.754 75.2527 224.59 75.5671 225.634 75.5671C226.693 75.5634 227.543 75.2452 228.185 74.609Z" fill="#969DA0"/>
<path d="M138.02 66.2428C139.75 66.2428 141.153 64.9559 141.153 63.3685C141.153 61.7812 139.75 60.4944 138.02 60.4944C136.289 60.4944 134.887 61.7812 134.887 63.3685C134.887 64.9559 136.289 66.2428 138.02 66.2428Z" fill="#969DA0"/>
<path d="M134.887 68.2233C136.807 69.0691 139.189 69.1066 141.153 68.2233V80.0211H134.887V68.2233Z" fill="#969DA0"/>
</g>
<defs>
<clipPath id="clip0_3112_16700">
<rect width="284" height="140" fill="white"/>
</clipPath>
</defs>
</svg>
