<svg width="284" height="140" viewBox="0 0 284 140" fill="none" xmlns="http://www.w3.org/2000/svg">
<g clip-path="url(#clip0_3112_16701)">
<rect opacity="0.3" width="284" height="140" rx="8" fill="#F0F0F0"/>
<path d="M112.897 66.053C114.616 66.053 116.009 64.659 116.009 62.9397C116.009 61.22 114.616 59.8263 112.897 59.8263C111.178 59.8263 109.784 61.22 109.784 62.9397C109.784 64.659 111.178 66.053 112.897 66.053V66.053ZM215.616 76.6902C215.143 76.3572 214.777 76.3021 214.474 76.9486C209.247 88.2708 200.437 82.6208 201.312 83.1181C203.266 82.2242 208.406 78.1027 207.629 72.4117C207.157 68.9337 204.172 67.391 201.003 67.9433C195.473 68.9076 193.438 74.8732 194.474 80.1546C194.655 81.0617 194.979 81.8097 195.302 82.5425C189.052 87.6251 186.57 77.9926 186.289 76.8415C186.278 76.7799 191.115 72.7481 192.46 63.1406C193.87 53.0714 190.658 51.2379 187.373 51.2951C181.295 51.401 179.653 64.1005 181.859 74.6845C181.674 74.7326 180.814 75.209 179.432 75.2624C178.438 72.1333 174.189 69.3904 173.076 70.4474C170.293 73.0913 173.751 78.2605 176.185 78.6659C174.723 87.6691 165.581 85.4393 167.283 74.1597C170.26 68.6315 172.524 60.4116 172.12 55.4493C171.977 53.6924 170.678 51.3385 167.74 51.4553C162.09 51.6788 161.476 64.3818 162.138 73.3976C162.105 73.1755 161.791 74.493 159.476 75.148C158.928 72.108 154.033 69.0566 152.881 70.5237C150.724 73.2694 154.462 78.1651 156.233 78.5066C154.771 87.5095 145.629 85.2798 147.331 74.0001C150.308 68.4723 152.572 60.2523 152.168 55.29C152.025 53.5328 150.726 51.179 147.788 51.2954C142.138 51.5192 141.524 64.2222 142.186 73.238C142.153 73.0124 141.831 74.3733 139.421 75.0175C139.341 71.0734 134.428 69.2649 133.248 70.5234C131.144 72.7666 133.729 77.3693 136.121 78.5066C134.659 87.5095 125.518 85.2798 127.219 74.0001C130.196 68.4723 132.46 60.2523 132.056 55.29C131.913 53.5328 130.614 51.179 127.676 51.2954C122.026 51.5192 121.572 64.8608 122.234 73.8764C120.373 81.8499 114.132 91.8074 114.943 71.8605C115.023 70.4612 115.11 69.9299 114.413 69.406C113.89 68.9988 112.701 69.1948 112.052 69.2109C111.262 69.2426 111.064 69.7046 110.889 70.4031C110.483 72.2066 110.41 73.955 110.352 76.3405C110.314 77.4564 110.224 77.9771 109.794 79.4987C109.365 81.02 106.917 83.8007 105.576 83.3357C103.716 82.6962 104.326 77.4458 104.675 73.8385C104.965 70.9877 104.035 69.7076 101.653 69.242C100.258 68.9513 99.4103 68.9959 97.9577 68.538C96.5839 68.105 96.2732 65.5065 93.3432 66.3725C91.7407 66.8465 92.7709 70.242 92.3858 72.7587C90.4922 85.1384 86.5522 85.4784 84.7243 79.4647C92.9566 59.3024 87.1057 51.3538 83.6809 51.3538C80.1137 51.3538 76.0362 53.8109 77.7628 69.5321C76.9233 69.2872 76.6651 69.1552 75.746 69.1552C70.5482 69.1552 67.0068 73.3571 67.0068 78.5406C67.0068 83.7241 70.5485 87.9264 75.7463 87.9264C78.8148 87.9264 80.9691 86.5309 82.6008 84.3721C83.6653 85.8967 84.9616 87.9498 87.3322 87.8574C94.3981 87.5823 96.4531 73.0881 96.6957 72.2796C97.451 72.3961 98.1656 72.6164 98.8632 72.7329C100.025 72.9074 100.11 73.3674 100.084 74.5364C99.7755 84.3941 101.595 87.8457 105.721 87.8457C108.02 87.8457 110.069 85.5869 111.481 83.9717C112.535 86.1478 114.215 87.7791 116.469 87.8454C121.93 87.9812 124.021 79.2766 123.83 80.4222C123.681 81.321 125.602 87.7964 131.224 87.8199C138.189 87.8492 139.483 80.1904 139.638 78.9076C139.657 78.6524 139.666 78.6788 139.638 78.9076L139.632 78.9853C141.843 78.5741 142.984 77.3886 142.984 77.3886C142.984 77.3886 144.76 87.939 151.336 87.8202C158.165 87.6964 159.453 80.7733 159.622 79.4233C159.644 79.103 159.657 79.1405 159.622 79.4233C159.621 79.4365 159.62 79.4497 159.619 79.4629C162.246 78.5075 162.937 77.5485 162.937 77.5485C162.937 77.5485 164.348 87.8891 171.288 87.9795C177.473 88.0604 179.765 81.7267 179.779 79.0757C180.822 79.0868 182.752 78.4567 182.707 78.4209C182.707 78.4209 184.972 87.462 191.299 87.9264C194.269 88.1443 196.498 86.2549 197.768 85.393C200.753 87.8105 210.693 90.8983 216.97 80.257C217.856 78.7298 215.951 76.9257 215.616 76.6902V76.6902ZM75.4955 84.4161C72.4629 84.4161 70.5182 81.612 70.5182 78.5884C70.5182 75.5652 72.3033 72.761 75.3359 72.761C76.7006 72.761 77.4598 72.9112 78.5226 73.8356C78.7153 74.5951 79.2615 76.347 79.5273 77.1425C79.8835 78.2071 80.307 79.1132 80.7342 80.0995C80.124 82.629 78.1236 84.4161 75.4955 84.4161V84.4161ZM82.8856 73.9245C82.7595 73.7235 82.7859 73.847 82.6448 73.6572C82.0889 72.145 81.0175 68.7697 80.8935 64.9359C80.7532 60.599 81.4761 55.5156 83.6069 55.5156C85.0508 55.5156 86.5853 65.818 82.8853 73.9245H82.8856ZM125.586 69.4057C125.244 66.8321 125.226 55.3592 127.98 55.6751C129.501 56.2912 127.016 67.1173 125.586 69.4057ZM145.698 69.4057C145.356 66.8321 145.338 55.3592 148.092 55.6751C149.613 56.2912 147.128 67.1173 145.698 69.4057ZM165.65 69.5656C165.308 66.9917 165.29 55.5188 168.044 55.8347C169.565 56.4508 167.08 67.2771 165.65 69.5656ZM187.677 55.0037C190.195 54.7426 190.091 65.7391 185.037 72.6815C184.385 70.1722 183.386 55.8652 187.677 55.0034V55.0037ZM198.261 78.6659C197.452 74.5804 199.542 71.8971 201.697 71.6029C202.45 71.4826 203.541 71.9705 203.759 72.8825C204.116 74.6012 203.707 77.1507 198.885 80.3855C198.892 80.4131 198.442 79.5759 198.261 78.6659H198.261Z" fill="#969DA0"/>
</g>
<defs>
<clipPath id="clip0_3112_16701">
<rect width="284" height="140" fill="white"/>
</clipPath>
</defs>
</svg>
