<svg width="51" height="50" viewBox="0 0 51 50" fill="none" xmlns="http://www.w3.org/2000/svg">
<g clip-path="url(#clip0_3121_16115)">
<path d="M49.5025 25C49.5025 38.531 38.5329 49.5 25.0012 49.5C11.4696 49.5 0.5 38.531 0.5 25C0.5 11.469 11.4696 0.5 25.0012 0.5C38.5329 0.5 49.5025 11.469 49.5025 25Z" fill="#0A0F16" stroke="white"/>
<path d="M21.0575 35.2554H28.9455" stroke="white" stroke-width="1.5" stroke-linecap="round" stroke-linejoin="round"/>
<path d="M25.0015 32.1002V26.5786" stroke="white" stroke-width="1.5" stroke-linecap="round" stroke-linejoin="round"/>
<path d="M21.8463 23.4233L25.0015 26.5785L28.1567 23.4233" stroke="white" stroke-width="1.5" stroke-linecap="round" stroke-linejoin="round"/>
<path d="M20.1405 28.8466C19.2015 28.1164 18.4409 27.182 17.9164 26.1144C17.392 25.0467 17.1174 23.8736 17.1135 22.6841C17.0938 18.4049 20.5349 14.8454 24.8141 14.7468C26.4703 14.7076 28.0967 15.1907 29.4628 16.1278C30.829 17.0648 31.8654 18.4082 32.4251 19.9674C32.9848 21.5266 33.0395 23.2224 32.5813 24.8144C32.123 26.4064 31.1752 27.8137 29.8723 28.8367C29.5844 29.0592 29.3513 29.3445 29.1907 29.6709C29.03 29.9973 28.9461 30.3561 28.9454 30.7199V31.3115C28.9454 31.5207 28.8623 31.7214 28.7144 31.8693C28.5665 32.0172 28.3658 32.1003 28.1566 32.1003H21.8463C21.6371 32.1003 21.4365 32.0172 21.2885 31.8693C21.1406 31.7214 21.0575 31.5207 21.0575 31.3115V30.7199C21.055 30.3589 20.9713 30.003 20.8126 29.6787C20.6538 29.3544 20.4241 29.07 20.1405 28.8466V28.8466Z" stroke="white" stroke-width="1.5" stroke-linecap="round" stroke-linejoin="round"/>
</g>
<defs>
<clipPath id="clip0_3121_16115">
<rect width="50.0025" height="50" fill="white"/>
</clipPath>
</defs>
</svg>
