<svg width="64" height="64" viewBox="0 0 64 64" fill="none" xmlns="http://www.w3.org/2000/svg">
<g clip-path="url(#clip0_3129_16571)">
<circle cx="32" cy="32" r="32" fill="white"/>
<path d="M26.9521 45.127H37.0482" stroke="#0A0F16" stroke-width="2" stroke-linecap="round" stroke-linejoin="round"/>
<path d="M32.0002 41.0881V34.0205" stroke="#0A0F16" stroke-width="2" stroke-linecap="round" stroke-linejoin="round"/>
<path d="M27.9619 29.9819L32.0003 34.0206L36.0388 29.9819" stroke="#0A0F16" stroke-width="2" stroke-linecap="round" stroke-linejoin="round"/>
<path d="M25.7788 36.9235C24.5768 35.9889 23.6033 34.7929 22.9321 33.4263C22.2608 32.0597 21.9094 30.5582 21.9044 29.0356C21.8792 23.5582 26.2836 19.0021 31.7607 18.8759C33.8804 18.8256 35.9622 19.4441 37.7108 20.6435C39.4593 21.8429 40.7858 23.5624 41.5023 25.5582C42.2187 27.5539 42.2886 29.7246 41.7021 31.7623C41.1156 33.8001 39.9025 35.6014 38.2348 36.9109C37.8664 37.1957 37.568 37.5609 37.3624 37.9787C37.1568 38.3965 37.0494 38.8558 37.0485 39.3214V40.0787C37.0485 40.3465 36.9421 40.6033 36.7528 40.7926C36.5635 40.982 36.3067 41.0883 36.0389 41.0883H27.962C27.6943 41.0883 27.4375 40.982 27.2481 40.7926C27.0588 40.6033 26.9524 40.3465 26.9524 40.0787V39.3214C26.9493 38.8593 26.8421 38.4038 26.639 37.9887C26.4358 37.5736 26.1418 37.2095 25.7788 36.9235V36.9235Z" stroke="#0A0F16" stroke-width="2" stroke-linecap="round" stroke-linejoin="round"/>
</g>
<defs>
<clipPath id="clip0_3129_16571">
<rect width="64" height="64" fill="white"/>
</clipPath>
</defs>
</svg>
