<svg width="284" height="140" viewBox="0 0 284 140" fill="none" xmlns="http://www.w3.org/2000/svg">
<g clip-path="url(#clip0_3112_16702)">
<rect opacity="0.3" width="284" height="140" rx="8" fill="#F0F0F0"/>
<path d="M66.7155 86.3435H60.2188V69.9749H55.7931V64.6456H60.2186V60.8534C60.2186 56.3597 62.176 53.1368 68.6552 53.1368C70.0255 53.1368 72.1769 53.416 72.1769 53.416V58.3645H69.9172C67.6148 58.3645 66.7159 59.0724 66.7159 61.0293V64.6456H72.0907L71.6121 69.9749H66.7157L66.7155 86.3435ZM81.6224 64.2197C81.5278 64.2197 81.4303 64.2232 81.334 64.2257C75.3098 64.2257 72.5536 68.8055 72.5536 75.3066C72.5536 83.4963 76.1288 86.7741 81.381 86.7741C84.386 86.7741 86.3604 85.4958 87.5604 83.1102V86.3458H93.7397V64.6479H87.5604V67.9847C86.5805 65.8379 84.551 64.2452 81.6224 64.2197ZM83.1936 69.3469C85.7238 69.3469 87.2424 71.1306 87.2424 74.1645L87.2483 77.2633C87.2483 79.3082 85.994 81.7006 83.1936 81.7006C78.8885 81.7006 79.0034 77.0023 79.0034 75.4375C79.0034 70.1737 81.2972 69.3469 83.1936 69.3469ZM96.2352 75.498C96.2352 72.8613 96.1104 64.2338 107.232 64.2338C111.696 64.2338 113.56 65.6685 113.56 65.6685L112.062 70.3652C112.062 70.3652 110.2 69.3291 107.774 69.3291C104.667 69.3291 102.685 71.1496 102.685 74.3526L102.688 76.6493C102.688 79.727 104.601 81.7815 107.781 81.7815C109.991 81.7815 112.028 80.7356 112.028 80.7356L113.522 85.3342C113.522 85.3342 111.818 86.7779 107.263 86.7779C96.6736 86.7779 96.2354 79.0375 96.2354 75.498H96.2352ZM149.792 64.2257C155.816 64.2257 158.616 68.8055 158.616 75.3066C158.616 83.4963 155.04 86.7741 149.788 86.7741C146.783 86.7741 144.562 85.4959 143.362 83.1102V86.3458L137.26 86.3433V53.7966L143.738 53.2255V67.6907C144.673 65.16 147.746 64.2257 149.792 64.2257H149.792ZM147.976 69.3469C145.445 69.3469 143.738 71.1306 143.738 74.1645L143.732 77.2633C143.729 79.3082 144.915 81.7006 147.976 81.7006C152.281 81.7006 152.166 77.0023 152.166 75.4375C152.166 70.1737 149.872 69.3469 147.976 69.3469ZM124.801 64.2436C117.968 64.2436 114.361 68.0088 114.361 74.6999V75.943C114.361 84.6274 119.426 86.8633 125.466 86.8633C131.336 86.8633 133.993 85.2039 133.993 85.2039L132.781 80.7847C132.781 80.7847 129.655 82.1288 126.242 82.1288C122.704 82.1288 121.183 81.2174 120.793 77.7811H134.511V74.2358C134.511 66.9777 130.462 64.2434 124.8 64.2434L124.801 64.2436ZM124.965 68.6687C127.33 68.6687 128.863 70.1345 128.779 73.5341H120.805C120.943 69.9561 122.596 68.6688 124.965 68.6688V68.6687ZM171.533 64.2138C164.516 64.2138 160.822 68.2102 160.822 75.372C160.822 85.1983 167.19 86.78 171.545 86.78C177.92 86.78 182.161 83.3111 182.161 75.4612C182.161 67.2908 177.392 64.2138 171.533 64.2138V64.2138ZM171.445 69.3647C174.53 69.3647 175.753 71.6985 175.753 74.355V76.639C175.753 79.8572 174.042 81.7186 171.433 81.7186C168.993 81.7186 167.278 79.9774 167.278 76.639V74.355C167.278 70.7946 169.319 69.3647 171.445 69.3647V69.3647ZM195.067 64.2138C188.051 64.2138 184.357 68.2102 184.357 75.372C184.357 85.1983 190.724 86.78 195.079 86.78C201.454 86.78 205.696 83.3111 205.696 75.4612C205.696 67.2908 200.926 64.2138 195.067 64.2138V64.2138ZM194.979 69.3647C198.064 69.3647 199.287 71.6985 199.287 74.355V76.639C199.287 79.8572 197.576 81.7186 194.967 81.7186C192.527 81.7186 190.812 79.9774 190.812 76.639V74.355C190.812 70.7946 192.853 69.3647 194.979 69.3647V69.3647ZM208.144 86.3435V53.7966L214.641 53.2255V75.0405L221.087 64.6456H227.948L221.224 75.4117L228.207 86.3435H221.326L214.641 75.7288V86.3435H208.144Z" fill="#969DA0"/>
</g>
<defs>
<clipPath id="clip0_3112_16702">
<rect width="284" height="140" fill="white"/>
</clipPath>
</defs>
</svg>
