<svg width="32" height="32" viewBox="0 0 32 32" fill="none" xmlns="http://www.w3.org/2000/svg">
<path fill-rule="evenodd" clip-rule="evenodd" d="M25.459 13.4962C24.2152 12.2525 22.1987 12.2525 20.9549 13.4962L13.2641 21.1871C10.8585 23.5927 6.95836 23.5927 4.55282 21.1871C2.14727 18.7816 2.14727 14.8814 4.55281 12.4759L15.232 1.79671C15.3837 1.64497 15.6297 1.64497 15.7815 1.79671L17.254 3.26923C17.4057 3.42097 17.4057 3.66698 17.254 3.81872L6.57483 14.4979C5.28601 15.7867 5.28601 17.8763 6.57483 19.1651C7.86365 20.4539 9.95323 20.4539 11.242 19.1651L18.9329 11.4742C21.2934 9.11374 25.1205 9.11374 27.481 11.4742C29.8415 13.8347 29.8415 17.6618 27.481 20.0223L16.7203 30.7831C16.5685 30.9348 16.3225 30.9348 16.1708 30.7831L14.6983 29.3106C14.5465 29.1588 14.5465 28.9128 14.6983 28.7611L25.459 18.0003C26.7028 16.7565 26.7028 14.74 25.459 13.4962Z" fill="#0A0F16"/>
<path fill-rule="evenodd" clip-rule="evenodd" d="M15.3853 4.05382C15.3853 3.83923 15.2114 3.66527 14.9968 3.66527L9.0317 3.66527C8.81711 3.66527 8.64315 3.49131 8.64315 3.27672L8.64315 1.49167C8.64315 1.27708 8.81711 1.10312 9.0317 1.10312L17.5589 1.10312C17.7735 1.10312 17.9475 1.27708 17.9475 1.49167L17.9475 10.0189C17.9475 10.2335 17.7735 10.4075 17.5589 10.4075H15.7739C15.5593 10.4075 15.3853 10.2335 15.3853 10.0189L15.3853 4.05382Z" fill="#0A0F16"/>
</svg>
