<svg width="60" height="60" viewBox="0 0 60 60" fill="none" xmlns="http://www.w3.org/2000/svg">
<g clip-path="url(#clip0_3164_18633)">
<circle opacity="0.5" cx="30" cy="30" r="30" fill="#F0F0F0"/>
<path d="M29.9992 44.1888C37.8375 44.1888 44.1917 37.8363 44.1917 30C44.1917 22.1637 37.8375 15.8112 29.9992 15.8112C22.1608 15.8112 15.8066 22.1637 15.8066 30C15.8066 37.8363 22.1608 44.1888 29.9992 44.1888Z" stroke="#0A0F16" stroke-width="2" stroke-linecap="round" stroke-linejoin="round"/>
<path d="M28.9777 33.3469C28.8255 33.3469 28.7021 33.2236 28.7021 33.0714V33.0714C28.712 32.1327 28.8103 31.5727 28.9971 31.0174C29.1839 30.462 29.4494 30.0123 29.7935 29.6683C30.1376 29.3242 30.5506 29.0072 31.0323 28.7173C31.3224 28.5403 31.5829 28.3315 31.814 28.0906C32.045 27.8449 32.2269 27.5623 32.3596 27.2429C32.4973 26.9234 32.5661 26.5695 32.5661 26.1813C32.5661 25.6996 32.4531 25.2819 32.2269 24.928C32.0008 24.5742 31.6984 24.3014 31.3199 24.1097C30.9414 23.918 30.5211 23.8222 30.059 23.8222C29.6559 23.8222 29.2675 23.9058 28.8939 24.0729C28.5203 24.24 28.2081 24.5029 27.9574 24.8617C27.7772 25.1195 27.6516 25.4344 27.5806 25.8064C27.5313 26.0648 27.3181 26.2697 27.0551 26.2697H26.1882C25.9028 26.2697 25.6723 26.0305 25.7139 25.7482C25.8044 25.1327 26.0041 24.5915 26.313 24.1245C26.7112 23.5298 27.2347 23.0752 27.8836 22.7606C28.5375 22.4461 29.2626 22.2888 30.059 22.2888C30.9242 22.2888 31.6763 22.4608 32.3154 22.8049C32.9594 23.1489 33.4559 23.6207 33.805 24.2203C34.1589 24.8199 34.3359 25.503 34.3359 26.2697C34.3359 26.8104 34.2523 27.2994 34.0852 27.7368C33.9229 28.1742 33.687 28.5649 33.3773 28.9089C33.0725 29.253 32.7038 29.5577 32.2712 29.8231C31.8386 30.0934 31.492 30.3784 31.2314 30.6782C30.9709 30.9731 30.7816 31.3245 30.6636 31.7324C30.5456 32.1404 30.4817 32.462 30.4719 33.0714V33.0714C30.4719 33.2236 30.3485 33.3469 30.1964 33.3469H28.9777ZM29.646 37.7112C29.2822 37.7112 28.9701 37.581 28.7095 37.3205C28.449 37.06 28.3187 36.7479 28.3187 36.3842C28.3187 36.0205 28.449 35.7085 28.7095 35.448C28.9701 35.1875 29.2822 35.0573 29.646 35.0573C30.0098 35.0573 30.322 35.1875 30.5825 35.448C30.8431 35.7085 30.9733 36.0205 30.9733 36.3842C30.9733 36.6251 30.9119 36.8462 30.789 37.0477C30.671 37.2492 30.5112 37.4114 30.3097 37.5343C30.113 37.6522 29.8918 37.7112 29.646 37.7112Z" fill="#0A0F16"/>
</g>
<defs>
<clipPath id="clip0_3164_18633">
<rect width="60" height="60" fill="white"/>
</clipPath>
</defs>
</svg>
