<svg width="284" height="140" viewBox="0 0 284 140" fill="none" xmlns="http://www.w3.org/2000/svg">
<g clip-path="url(#clip0_3112_16704)">
<rect opacity="0.3" width="284" height="140" rx="8" fill="#F0F0F0"/>
<path d="M85.8551 44.637H87.2225C91.9694 44.7413 96.6389 46.6707 99.9927 50.0865C98.7544 51.3641 97.4902 52.5896 96.2777 53.8672C94.3944 52.1463 92.1242 50.8165 89.6475 50.3472C85.9841 49.565 82.037 50.269 78.967 52.381C75.6132 54.5973 73.3429 58.352 72.8527 62.3674C72.311 66.3307 73.4203 70.5025 75.9743 73.5793C78.4252 76.5778 82.166 78.4551 86.0357 78.5855C89.6475 78.7941 93.4141 77.6729 96.0455 75.1176C98.1094 73.3185 99.0639 70.5807 99.3735 67.9212C95.091 67.9212 90.8084 67.9473 86.5259 67.9212V62.5499H104.559C105.488 68.3123 104.146 74.8048 99.8121 78.9245C96.9227 81.8448 92.9239 83.5657 88.8478 83.9046C84.9006 84.2957 80.8244 83.5396 77.3159 81.6101C73.1107 79.3417 69.7569 75.5088 68.1058 70.9979C66.5579 66.8521 66.5321 62.1588 67.9768 57.9869C69.2925 54.1801 71.8208 50.8165 75.0714 48.4699C78.193 46.1493 81.9854 44.8716 85.8551 44.637Z" fill="#969DA0"/>
<path d="M189.307 45.9929H194.828V83.2267C192.997 83.2267 191.139 83.2528 189.307 83.2007C189.333 70.8155 189.307 58.4042 189.307 45.9929V45.9929Z" fill="#969DA0"/>
<path d="M116.838 58.8996C120.244 58.2478 123.933 58.9779 126.745 61.0377C129.299 62.8629 131.079 65.731 131.621 68.8599C132.317 72.4842 131.44 76.4474 129.118 79.3155C126.616 82.5226 122.514 84.2435 118.515 83.9828C114.852 83.7742 111.292 81.9229 109.125 78.8983C106.674 75.5609 106.08 70.9719 107.422 67.0608C108.763 62.8629 112.556 59.6558 116.838 58.8996V58.8996ZM117.612 63.8537C116.219 64.2187 114.929 65.027 114.001 66.1743C111.498 69.1988 111.653 74.1268 114.413 76.9428C115.987 78.5594 118.36 79.3155 120.553 78.8723C122.591 78.5072 124.372 77.1253 125.352 75.3001C127.055 72.1973 126.564 67.9212 123.959 65.4963C122.282 63.9319 119.831 63.2801 117.612 63.8537Z" fill="#969DA0"/>
<path d="M144.183 58.8995C148.078 58.1433 152.335 59.2384 155.25 62.0023C159.997 66.3045 160.513 74.3615 156.463 79.3156C154.012 82.4445 150.039 84.1654 146.117 83.9828C142.377 83.8785 138.687 82.0012 136.469 78.8984C133.966 75.4827 133.425 70.7893 134.843 66.8C136.262 62.7324 139.977 59.6296 144.183 58.8995V58.8995ZM144.956 63.8536C143.563 64.2186 142.273 65.0269 141.345 66.1481C138.868 69.1206 138.971 73.9704 141.628 76.8124C143.202 78.5073 145.653 79.3416 147.923 78.8723C149.936 78.4812 151.741 77.1253 152.722 75.3001C154.399 72.1712 153.909 67.8951 151.277 65.4702C149.6 63.9057 147.149 63.2799 144.956 63.8536Z" fill="#969DA0"/>
<path d="M167.378 60.412C170.345 58.5346 174.292 58.0132 177.491 59.6298C178.497 60.073 179.323 60.8292 180.123 61.5853C180.149 60.8813 180.123 60.1512 180.149 59.4212C181.877 59.4472 183.606 59.4212 185.36 59.4472V82.4446C185.334 85.9124 184.457 89.5889 181.98 92.1181C179.271 94.908 175.118 95.7685 171.377 95.1948C167.378 94.5951 163.895 91.6487 162.348 87.9201C163.895 87.164 165.521 86.5643 167.12 85.8603C168.023 87.9984 169.855 89.8236 172.151 90.2407C174.447 90.6579 177.104 90.0843 178.601 88.1548C180.2 86.1732 180.2 83.4615 180.123 81.0366C178.936 82.2099 177.569 83.2529 175.918 83.644C172.332 84.6609 168.384 83.4093 165.624 80.9584C162.838 78.5074 161.187 74.7267 161.341 70.972C161.419 66.7219 163.792 62.6283 167.378 60.412V60.412ZM172.719 63.7495C171.145 64.0102 169.674 64.8967 168.668 66.1222C166.243 69.0425 166.243 73.7098 168.694 76.5779C170.087 78.2727 172.332 79.2114 174.499 78.9767C176.537 78.7681 178.42 77.4644 179.426 75.6653C181.129 72.6147 180.845 68.4689 178.549 65.8093C177.13 64.1666 174.86 63.3583 172.719 63.7495V63.7495Z" fill="#969DA0"/>
<path d="M201.454 61.7417C204.55 58.8214 209.323 57.8306 213.296 59.3689C217.062 60.803 219.462 64.4273 220.674 68.1559C215.076 70.5026 209.503 72.8232 203.905 75.1698C204.679 76.6561 205.866 78.0119 207.465 78.5595C209.71 79.3678 212.393 79.081 214.276 77.5687C215.024 76.995 215.618 76.2389 216.185 75.5088C217.604 76.4736 219.023 77.4122 220.442 78.377C218.43 81.4276 215.05 83.5657 211.412 83.9047C207.388 84.4001 203.105 82.8356 200.5 79.6546C196.217 74.6484 196.63 66.2525 201.454 61.7417V61.7417ZM204.215 66.5654C203.337 67.843 202.976 69.4075 203.002 70.9458C206.743 69.3814 210.484 67.8169 214.224 66.2264C213.605 64.7663 212.109 63.8798 210.587 63.6451C208.136 63.2018 205.582 64.5316 204.215 66.5654V66.5654Z" fill="#969DA0"/>
</g>
<defs>
<clipPath id="clip0_3112_16704">
<rect width="284" height="140" fill="white"/>
</clipPath>
</defs>
</svg>
