<svg width="64" height="64" viewBox="0 0 64 64" fill="none" xmlns="http://www.w3.org/2000/svg">
<g clip-path="url(#clip0_3171_19694)">
<circle cx="32" cy="32" r="32" fill="white"/>
<path d="M24.8648 45.1806C24.5736 45.1806 24.2943 45.0649 24.0883 44.859C23.8824 44.653 23.7667 44.3737 23.7667 44.0825V38.2213C23.1643 38.5087 22.4966 38.6318 21.8313 38.5782C21.2679 38.5368 20.7207 38.3718 20.2284 38.0948C19.7361 37.8178 19.3109 37.4357 18.9831 36.9758C18.6552 36.5158 18.4328 35.9892 18.3317 35.4334C18.2305 34.8777 18.2531 34.3065 18.3978 33.7605C18.5425 33.2145 18.8058 32.7071 19.1689 32.2744C19.532 31.8418 19.9861 31.4944 20.4987 31.2572C21.0113 31.02 21.5699 30.8986 22.1348 30.9018C22.6996 30.905 23.2568 31.0327 23.7667 31.2758V25.4146C23.7667 25.1234 23.8824 24.8441 24.0883 24.6381C24.2943 24.4322 24.5736 24.3165 24.8648 24.3165H31.275C30.9876 23.7141 30.8645 23.0464 30.9181 22.3811C30.9595 21.8178 31.1246 21.2705 31.4016 20.7782C31.6785 20.2859 32.0606 19.8607 32.5206 19.5329C32.9806 19.205 33.5072 18.9826 34.0629 18.8815C34.6186 18.7803 35.1898 18.8029 35.7358 18.9476C36.2818 19.0923 36.7892 19.3556 37.2219 19.7187C37.6546 20.0818 38.0019 20.5359 38.2392 21.0485C38.4764 21.5611 38.5977 22.1197 38.5945 22.6846C38.5913 23.2494 38.4636 23.8066 38.2206 24.3165H44.6308C44.922 24.3165 45.2013 24.4322 45.4073 24.6381C45.6132 24.8441 45.7289 25.1234 45.7289 25.4146V31.2758C45.1265 30.9884 44.4588 30.8653 43.7935 30.9189C43.2301 30.9603 42.6829 31.1253 42.1906 31.4023C41.6983 31.6793 41.2731 32.0614 40.9452 32.5213C40.6174 32.9813 40.395 33.5079 40.2939 34.0637C40.1927 34.6194 40.2153 35.1906 40.36 35.7366C40.5047 36.2826 40.768 36.79 41.1311 37.2227C41.4942 37.6553 41.9483 38.0027 42.4609 38.2399C42.9735 38.4771 43.5321 38.5985 44.097 38.5953C44.6618 38.5921 45.219 38.4644 45.7289 38.2213V44.0825C45.7289 44.3737 45.6132 44.653 45.4073 44.859C45.2013 45.0649 44.922 45.1806 44.6308 45.1806H24.8648Z" stroke="#0A0F16" stroke-width="2" stroke-linecap="round" stroke-linejoin="round"/>
</g>
<defs>
<clipPath id="clip0_3171_19694">
<rect width="64" height="64" fill="white"/>
</clipPath>
</defs>
</svg>
