<svg width="51" height="50" viewBox="0 0 51 50" fill="none" xmlns="http://www.w3.org/2000/svg">
<g clip-path="url(#clip0_3121_16116)">
<path d="M49.2525 25C49.2525 38.3929 38.3949 49.25 25.0012 49.25C11.6076 49.25 0.75 38.3929 0.75 25C0.75 11.6071 11.6076 0.75 25.0012 0.75C38.3949 0.75 49.2525 11.6071 49.2525 25Z" fill="#0A0F16" stroke="white" stroke-width="1.5"/>
<path d="M26.5787 35.1562H23.4235" stroke="white" stroke-width="1.5" stroke-linecap="round" stroke-linejoin="round"/>
<path d="M24.5083 15.0225C22.635 16.5213 16.3739 22.5161 21.8462 32.0014H28.1565C33.5203 22.5161 27.348 16.5311 25.4943 15.0225C25.356 14.907 25.1815 14.8438 25.0013 14.8438C24.8211 14.8438 24.6466 14.907 24.5083 15.0225Z" stroke="white" stroke-width="1.5" stroke-linecap="round" stroke-linejoin="round"/>
<path d="M19.667 24.0542L16.571 27.7615C16.493 27.8525 16.438 27.9609 16.4105 28.0776C16.3831 28.1942 16.384 28.3158 16.4132 28.432L17.626 33.924C17.6553 34.0545 17.7173 34.1755 17.8062 34.2755C17.895 34.3755 18.0079 34.4512 18.1341 34.4956C18.2603 34.54 18.3957 34.5515 18.5276 34.5291C18.6595 34.5068 18.7836 34.4512 18.8881 34.3677L21.8461 32.0013" stroke="white" stroke-width="1.5" stroke-linecap="round" stroke-linejoin="round"/>
<path d="M30.2762 23.9756L33.4313 27.7618C33.5093 27.8528 33.5644 27.9612 33.5918 28.0778C33.6193 28.1945 33.6183 28.316 33.5891 28.4323L32.3763 33.9243C32.3471 34.0548 32.2851 34.1758 32.1962 34.2758C32.1073 34.3757 31.9945 34.4515 31.8683 34.4959C31.742 34.5402 31.6066 34.5518 31.4747 34.5294C31.3428 34.507 31.2188 34.4515 31.1143 34.368L28.1563 32.0016" stroke="white" stroke-width="1.5" stroke-linecap="round" stroke-linejoin="round"/>
</g>
<defs>
<clipPath id="clip0_3121_16116">
<rect width="50.0025" height="50" fill="white"/>
</clipPath>
</defs>
</svg>
