<svg width="64" height="64" viewBox="0 0 64 64" fill="none" xmlns="http://www.w3.org/2000/svg">
<g clip-path="url(#clip0_3129_16572)">
<circle cx="32" cy="32" r="32" fill="white"/>
<path d="M34.0194 45.0005H29.981" stroke="#0A0F16" stroke-width="2" stroke-linecap="round" stroke-linejoin="round"/>
<path d="M31.3691 19.2289C28.9713 21.1472 20.9576 28.8206 27.9617 40.9617H36.0386C42.9039 28.8206 35.0037 21.1598 32.6311 19.2289C32.4541 19.081 32.2308 19 32.0001 19C31.7695 19 31.5462 19.081 31.3691 19.2289Z" stroke="#0A0F16" stroke-width="2" stroke-linecap="round" stroke-linejoin="round"/>
<path d="M25.1726 30.7891L21.2099 35.5345C21.1101 35.6509 21.0396 35.7897 21.0045 35.939C20.9694 36.0883 20.9706 36.2439 21.008 36.3927L22.5603 43.4224C22.5977 43.5895 22.677 43.7443 22.7908 43.8723C22.9046 44.0003 23.049 44.0972 23.2106 44.154C23.3721 44.2108 23.5454 44.2256 23.7143 44.197C23.8831 44.1683 24.0418 44.0972 24.1756 43.9903L27.9616 40.9614" stroke="#0A0F16" stroke-width="2" stroke-linecap="round" stroke-linejoin="round"/>
<path d="M38.7519 30.6885L42.7903 35.5348C42.8902 35.6513 42.9606 35.79 42.9957 35.9394C43.0309 36.0887 43.0297 36.2443 42.9922 36.393L41.44 43.4228C41.4025 43.5899 41.3232 43.7447 41.2094 43.8727C41.0957 44.0007 40.9512 44.0976 40.7897 44.1544C40.6281 44.2112 40.4548 44.226 40.286 44.1974C40.1171 44.1687 39.9584 44.0976 39.8246 43.9907L36.0386 40.9617" stroke="#0A0F16" stroke-width="2" stroke-linecap="round" stroke-linejoin="round"/>
</g>
<defs>
<clipPath id="clip0_3129_16572">
<rect width="64" height="64" fill="white"/>
</clipPath>
</defs>
</svg>
