<svg width="192" height="46" viewBox="0 0 192 46" fill="none" xmlns="http://www.w3.org/2000/svg">
<g clip-path="url(#clip0_3127_30073)">
<path fill-rule="evenodd" clip-rule="evenodd" d="M33.5181 20.333C31.7147 18.5296 28.7908 18.5296 26.9874 20.333L15.8359 31.4844C12.348 34.9723 6.69295 34.9723 3.20501 31.4844C-0.282918 27.9965 -0.282916 22.3414 3.20501 18.8535L18.6893 3.36917C18.9093 3.14915 19.2661 3.14915 19.4861 3.36917L21.6212 5.50426C21.8412 5.72427 21.8412 6.08099 21.6212 6.301L6.13685 21.7853C4.26812 23.654 4.26812 26.6838 6.13684 28.5526C8.00557 30.4213 11.0354 30.4213 12.9041 28.5526L24.0555 17.4011C27.4781 13.9785 33.0273 13.9785 36.4499 17.4011C39.8725 20.8238 39.8725 26.3729 36.4499 29.7955L20.8473 45.3981C20.6273 45.6181 20.2706 45.6181 20.0505 45.3981L17.9155 43.263C17.6954 43.043 17.6954 42.6863 17.9154 42.4663L33.5181 26.8637C35.3215 25.0603 35.3215 22.1364 33.5181 20.333Z" fill="white"/>
<path fill-rule="evenodd" clip-rule="evenodd" d="M18.9116 6.64158C18.9116 6.33043 18.6594 6.0782 18.3483 6.0782L9.69914 6.0782C9.38799 6.0782 9.13576 5.82597 9.13576 5.51482L9.13576 2.92659C9.13576 2.61544 9.38799 2.3632 9.69914 2.3632L22.0633 2.3632C22.3744 2.3632 22.6266 2.61544 22.6266 2.92658L22.6266 15.2907C22.6266 15.6018 22.3744 15.8541 22.0633 15.8541L19.475 15.8541C19.1639 15.8541 18.9116 15.6018 18.9116 15.2907L18.9116 6.64158Z" fill="white"/>
<path d="M57.824 32.384C56.1813 32.384 54.7307 32.1067 53.472 31.552C52.2133 30.976 51.2213 30.1653 50.496 29.12C49.7707 28.0533 49.3973 26.7627 49.376 25.248H53.696C53.7387 26.2933 54.112 27.1787 54.816 27.904C55.5413 28.608 56.5333 28.96 57.792 28.96C58.88 28.96 59.744 28.704 60.384 28.192C61.024 27.6587 61.344 26.9547 61.344 26.08C61.344 25.1627 61.056 24.448 60.48 23.936C59.9253 23.424 59.1787 23.008 58.24 22.688C57.3013 22.368 56.2987 22.0267 55.232 21.664C53.504 21.0667 52.1813 20.2987 51.264 19.36C50.368 18.4213 49.92 17.1733 49.92 15.616C49.8987 14.2933 50.208 13.1627 50.848 12.224C51.5093 11.264 52.4053 10.528 53.536 10.016C54.6667 9.48267 55.968 9.216 57.44 9.216C58.9333 9.216 60.2453 9.48267 61.376 10.016C62.528 10.5493 63.424 11.296 64.064 12.256C64.7253 13.216 65.0773 14.3573 65.12 15.68H60.736C60.7147 14.8907 60.4053 14.1973 59.808 13.6C59.232 12.9813 58.4213 12.672 57.376 12.672C56.48 12.6507 55.7227 12.8747 55.104 13.344C54.5067 13.792 54.208 14.4533 54.208 15.328C54.208 16.0747 54.4427 16.672 54.912 17.12C55.3813 17.5467 56.0213 17.9093 56.832 18.208C57.6427 18.5067 58.5707 18.8267 59.616 19.168C60.7253 19.552 61.7387 20 62.656 20.512C63.5733 21.024 64.3093 21.7067 64.864 22.56C65.4187 23.392 65.696 24.4693 65.696 25.792C65.696 26.9653 65.3973 28.0533 64.8 29.056C64.2027 30.0587 63.3173 30.8693 62.144 31.488C60.9707 32.0853 59.5307 32.384 57.824 32.384ZM76.2458 32C74.5818 32 73.2484 31.5947 72.2458 30.784C71.2431 29.9733 70.7418 28.5333 70.7418 26.464V19.552H68.0218V16.128H70.7418L71.2218 11.872H74.8378V16.128H79.1258V19.552H74.8378V26.496C74.8378 27.264 74.9978 27.7973 75.3177 28.096C75.6591 28.3733 76.2351 28.512 77.0458 28.512H79.0298V32H76.2458ZM88.1145 32.384C86.7492 32.384 85.6292 32.1707 84.7545 31.744C83.8798 31.296 83.2292 30.7093 82.8025 29.984C82.3758 29.2587 82.1625 28.4587 82.1625 27.584C82.1625 26.112 82.7385 24.9173 83.8905 24C85.0425 23.0827 86.7705 22.624 89.0745 22.624H93.1065V22.24C93.1065 21.152 92.7972 20.352 92.1785 19.84C91.5598 19.328 90.7918 19.072 89.8745 19.072C89.0425 19.072 88.3172 19.2747 87.6985 19.68C87.0798 20.064 86.6958 20.64 86.5465 21.408H82.5465C82.6532 20.256 83.0372 19.2533 83.6985 18.4C84.3812 17.5467 85.2558 16.896 86.3225 16.448C87.3892 15.9787 88.5838 15.744 89.9065 15.744C92.1678 15.744 93.9492 16.3093 95.2505 17.44C96.5518 18.5707 97.2025 20.1707 97.2025 22.24V32H93.7145L93.3305 29.44C92.8612 30.2933 92.1998 30.9973 91.3465 31.552C90.5145 32.1067 89.4372 32.384 88.1145 32.384ZM89.0425 29.184C90.2158 29.184 91.1225 28.8 91.7625 28.032C92.4238 27.264 92.8398 26.3147 93.0105 25.184H89.5225C88.4345 25.184 87.6558 25.3867 87.1865 25.792C86.7172 26.176 86.4825 26.656 86.4825 27.232C86.4825 27.8507 86.7172 28.3307 87.1865 28.672C87.6558 29.0133 88.2745 29.184 89.0425 29.184ZM101.111 32V16.128H104.759L105.143 19.104C105.719 18.08 106.498 17.2693 107.479 16.672C108.482 16.0533 109.655 15.744 110.999 15.744V20.064H109.847C108.951 20.064 108.151 20.2027 107.447 20.48C106.743 20.7573 106.189 21.2373 105.783 21.92C105.399 22.6027 105.207 23.552 105.207 24.768V32H101.111ZM120.871 32C119.207 32 117.873 31.5947 116.871 30.784C115.868 29.9733 115.367 28.5333 115.367 26.464V19.552H112.647V16.128H115.367L115.847 11.872H119.463V16.128H123.751V19.552H119.463V26.496C119.463 27.264 119.623 27.7973 119.943 28.096C120.284 28.3733 120.86 28.512 121.671 28.512H123.655V32H120.871ZM133.22 32.384C131.236 32.384 129.7 31.7653 128.612 30.528C127.545 29.2907 127.012 27.4773 127.012 25.088V16.128H131.076V24.704C131.076 26.0693 131.353 27.1147 131.908 27.84C132.462 28.5653 133.337 28.928 134.532 28.928C135.662 28.928 136.59 28.5227 137.316 27.712C138.062 26.9013 138.436 25.7707 138.436 24.32V16.128H142.532V32H138.916L138.596 29.312C138.105 30.2507 137.39 30.9973 136.452 31.552C135.534 32.1067 134.457 32.384 133.22 32.384ZM145.232 32L150.992 24.064L145.232 16.128H149.616L153.648 21.76L157.648 16.128H162.064L156.272 24.064L162.064 32H157.648L153.648 26.368L149.616 32H145.232ZM171.307 32L178.315 20.672L171.211 9.6H175.915L180.939 17.408L185.547 9.6H190.155L183.147 20.864L190.315 32H185.611L180.523 24.096L175.915 32H171.307Z" fill="white"/>
</g>
<defs>
<clipPath id="clip0_3127_30073">
<rect width="192" height="46" fill="white"/>
</clipPath>
</defs>
</svg>
