<svg width="194" height="46" viewBox="0 0 194 46" fill="none" xmlns="http://www.w3.org/2000/svg">
<g clip-path="url(#clip0_3107_16517)">
<path fill-rule="evenodd" clip-rule="evenodd" d="M33.7782 20.333C31.9748 18.5296 29.0509 18.5296 27.2475 20.333L16.0961 31.4844C12.6082 34.9723 6.95311 34.9723 3.46518 31.4844C-0.0227555 27.9965 -0.0227539 22.3414 3.46518 18.8535L18.9495 3.36917C19.1695 3.14916 19.5262 3.14916 19.7462 3.36917L21.8813 5.50427C22.1013 5.72428 22.1013 6.08099 21.8813 6.301L6.39701 21.7853C4.52828 23.6541 4.52828 26.6839 6.39701 28.5526C8.26573 30.4213 11.2955 30.4213 13.1643 28.5526L24.3157 17.4012C27.7383 13.9785 33.2874 13.9785 36.71 17.4012C40.1327 20.8238 40.1327 26.3729 36.71 29.7955L21.1074 45.3981C20.8874 45.6181 20.5307 45.6181 20.3107 45.3981L18.1756 43.263C17.9556 43.043 17.9556 42.6863 18.1756 42.4663L33.7782 26.8637C35.5816 25.0603 35.5816 22.1364 33.7782 20.333Z" fill="#0A0F16"/>
<path fill-rule="evenodd" clip-rule="evenodd" d="M19.172 6.64188C19.172 6.33074 18.9197 6.0785 18.6086 6.0785L9.95947 6.0785C9.64832 6.0785 9.39609 5.82627 9.39609 5.51512L9.39609 2.92689C9.39609 2.61574 9.64832 2.36351 9.95947 2.36351L22.3236 2.3635C22.6347 2.3635 22.887 2.61574 22.887 2.92688L22.887 15.291C22.887 15.6021 22.6347 15.8544 22.3236 15.8544L19.7353 15.8544C19.4242 15.8544 19.172 15.6021 19.172 15.291L19.172 6.64188Z" fill="#0A0F16"/>
<path d="M59.5626 32.384C57.92 32.384 56.4693 32.1067 55.2106 31.552C53.952 30.976 52.96 30.1653 52.2346 29.12C51.5093 28.0533 51.136 26.7627 51.1146 25.248H55.4346C55.4773 26.2933 55.8506 27.1787 56.5546 27.904C57.28 28.608 58.272 28.96 59.5306 28.96C60.6186 28.96 61.4826 28.704 62.1226 28.192C62.7626 27.6587 63.0826 26.9547 63.0826 26.08C63.0826 25.1627 62.7946 24.448 62.2186 23.936C61.664 23.424 60.9173 23.008 59.9786 22.688C59.04 22.368 58.0373 22.0267 56.9706 21.664C55.2426 21.0667 53.92 20.2987 53.0026 19.36C52.1066 18.4213 51.6586 17.1733 51.6586 15.616C51.6373 14.2933 51.9466 13.1627 52.5866 12.224C53.248 11.264 54.144 10.528 55.2746 10.016C56.4053 9.48267 57.7066 9.216 59.1786 9.216C60.672 9.216 61.984 9.48267 63.1146 10.016C64.2666 10.5493 65.1626 11.296 65.8026 12.256C66.464 13.216 66.816 14.3573 66.8586 15.68H62.4746C62.4533 14.8907 62.144 14.1973 61.5466 13.6C60.9706 12.9813 60.16 12.672 59.1146 12.672C58.2186 12.6507 57.4613 12.8747 56.8426 13.344C56.2453 13.792 55.9466 14.4533 55.9466 15.328C55.9466 16.0747 56.1813 16.672 56.6506 17.12C57.12 17.5467 57.76 17.9093 58.5706 18.208C59.3813 18.5067 60.3093 18.8267 61.3546 19.168C62.464 19.552 63.4773 20 64.3946 20.512C65.312 21.024 66.048 21.7067 66.6026 22.56C67.1573 23.392 67.4346 24.4693 67.4346 25.792C67.4346 26.9653 67.136 28.0533 66.5386 29.056C65.9413 30.0587 65.056 30.8693 63.8826 31.488C62.7093 32.0853 61.2693 32.384 59.5626 32.384ZM77.9844 32C76.3204 32 74.987 31.5947 73.9844 30.784C72.9817 29.9733 72.4804 28.5333 72.4804 26.464V19.552H69.7604V16.128H72.4804L72.9604 11.872H76.5764V16.128H80.8644V19.552H76.5764V26.496C76.5764 27.264 76.7364 27.7973 77.0564 28.096C77.3977 28.3733 77.9737 28.512 78.7844 28.512H80.7684V32H77.9844ZM89.8531 32.384C88.4878 32.384 87.3678 32.1707 86.4931 31.744C85.6185 31.296 84.9678 30.7093 84.5411 29.984C84.1145 29.2587 83.9011 28.4587 83.9011 27.584C83.9011 26.112 84.4771 24.9173 85.6291 24C86.7811 23.0827 88.5091 22.624 90.8131 22.624H94.8451V22.24C94.8451 21.152 94.5358 20.352 93.9171 19.84C93.2985 19.328 92.5305 19.072 91.6131 19.072C90.7811 19.072 90.0558 19.2747 89.4371 19.68C88.8185 20.064 88.4345 20.64 88.2851 21.408H84.2851C84.3918 20.256 84.7758 19.2533 85.4371 18.4C86.1198 17.5467 86.9945 16.896 88.0611 16.448C89.1278 15.9787 90.3225 15.744 91.6451 15.744C93.9065 15.744 95.6878 16.3093 96.9891 17.44C98.2905 18.5707 98.9411 20.1707 98.9411 22.24V32H95.4531L95.0691 29.44C94.5998 30.2933 93.9385 30.9973 93.0851 31.552C92.2531 32.1067 91.1758 32.384 89.8531 32.384ZM90.7811 29.184C91.9545 29.184 92.8611 28.8 93.5011 28.032C94.1625 27.264 94.5785 26.3147 94.7491 25.184H91.2611C90.1731 25.184 89.3945 25.3867 88.9251 25.792C88.4558 26.176 88.2211 26.656 88.2211 27.232C88.2211 27.8507 88.4558 28.3307 88.9251 28.672C89.3945 29.0133 90.0131 29.184 90.7811 29.184ZM102.85 32V16.128H106.498L106.882 19.104C107.458 18.08 108.237 17.2693 109.218 16.672C110.221 16.0533 111.394 15.744 112.738 15.744V20.064H111.586C110.69 20.064 109.89 20.2027 109.186 20.48C108.482 20.7573 107.927 21.2373 107.522 21.92C107.138 22.6027 106.946 23.552 106.946 24.768V32H102.85ZM122.609 32C120.945 32 119.612 31.5947 118.609 30.784C117.607 29.9733 117.105 28.5333 117.105 26.464V19.552H114.385V16.128H117.105L117.585 11.872H121.201V16.128H125.489V19.552H121.201V26.496C121.201 27.264 121.361 27.7973 121.681 28.096C122.023 28.3733 122.599 28.512 123.409 28.512H125.393V32H122.609ZM134.958 32.384C132.974 32.384 131.438 31.7653 130.35 30.528C129.283 29.2907 128.75 27.4773 128.75 25.088V16.128H132.814V24.704C132.814 26.0693 133.091 27.1147 133.646 27.84C134.201 28.5653 135.075 28.928 136.27 28.928C137.401 28.928 138.329 28.5227 139.054 27.712C139.801 26.9013 140.174 25.7707 140.174 24.32V16.128H144.27V32H140.654L140.334 29.312C139.843 30.2507 139.129 30.9973 138.19 31.552C137.273 32.1067 136.195 32.384 134.958 32.384ZM146.971 32L152.731 24.064L146.971 16.128H151.355L155.387 21.76L159.387 16.128H163.803L158.011 24.064L163.803 32H159.387L155.387 26.368L151.355 32H146.971ZM173.045 32L180.053 20.672L172.949 9.6H177.653L182.677 17.408L187.285 9.6H191.893L184.885 20.864L192.053 32H187.349L182.261 24.096L177.653 32H173.045Z" fill="#0A0F16"/>
</g>
<defs>
<clipPath id="clip0_3107_16517">
<rect width="194" height="46" fill="white"/>
</clipPath>
</defs>
</svg>
