<svg width="64" height="64" viewBox="0 0 64 64" fill="none" xmlns="http://www.w3.org/2000/svg">
<g clip-path="url(#clip0_3129_16521)">
<circle cx="32" cy="32" r="32" fill="white"/>
<path d="M32.3448 38.6325C35.7019 38.6325 38.4233 35.9111 38.4233 32.554C38.4233 29.197 35.7019 26.4756 32.3448 26.4756C28.9878 26.4756 26.2664 29.197 26.2664 32.554C26.2664 35.9111 28.9878 38.6325 32.3448 38.6325Z" stroke="#0A0F16" stroke-width="2" stroke-linecap="round" stroke-linejoin="round"/>
<path d="M41.1332 26.5646C41.4381 27.001 41.705 27.4628 41.931 27.9449L45.2108 29.7684C45.6204 31.6027 45.6247 33.5042 45.2235 35.3403L41.931 37.1639C41.705 37.6459 41.4381 38.1077 41.1332 38.5442L41.1965 42.3052C39.8065 43.5719 38.1614 44.5262 36.3717 45.1039L33.1425 43.1664C32.6114 43.2044 32.0781 43.2044 31.5469 43.1664L28.3304 45.0912C26.5351 44.524 24.8846 43.5734 23.493 42.3052L23.5563 38.5569C23.254 38.1143 22.9872 37.6486 22.7585 37.1639L19.4787 35.3403C19.0691 33.5061 19.0648 31.6045 19.466 29.7684L22.7585 27.9449C22.9845 27.4628 23.2514 27.001 23.5563 26.5646L23.493 22.8035C24.883 21.5369 26.5281 20.5826 28.3178 20.0049L31.5469 21.9424C32.0781 21.9044 32.6114 21.9044 33.1425 21.9424L36.3591 20.0175C38.1544 20.5847 39.8049 21.5353 41.1965 22.8035L41.1332 26.5646Z" stroke="#0A0F16" stroke-width="2" stroke-linecap="round" stroke-linejoin="round"/>
</g>
<defs>
<clipPath id="clip0_3129_16521">
<rect width="64" height="64" fill="white"/>
</clipPath>
</defs>
</svg>
