<svg width="82" height="82" viewBox="0 0 82 82" fill="none" xmlns="http://www.w3.org/2000/svg">
<circle cx="41" cy="41" r="41" fill="white"/>
<path d="M54.6044 36.2422H27.3993C26.6481 36.2422 26.0391 36.8508 26.0391 37.6016V56.6328C26.0391 57.3836 26.6481 57.9922 27.3993 57.9922H54.6044C55.3556 57.9922 55.9646 57.3836 55.9646 56.6328V37.6016C55.9646 36.8508 55.3556 36.2422 54.6044 36.2422Z" stroke="#202324" stroke-width="2.5" stroke-linecap="round" stroke-linejoin="round"/>
<path d="M34.8789 36.2422V30.125C34.8789 28.5026 35.5238 26.9467 36.6717 25.7995C37.8197 24.6523 39.3766 24.0078 41 24.0078C42.6235 24.0078 44.1804 24.6523 45.3283 25.7995C46.4763 26.9467 47.1212 28.5026 47.1212 30.125" stroke="#202324" stroke-width="2.5" stroke-linecap="round" stroke-linejoin="round"/>
<path d="M41.0013 49.1562C42.1282 49.1562 43.0417 48.2433 43.0417 47.1172C43.0417 45.991 42.1282 45.0781 41.0013 45.0781C39.8744 45.0781 38.9609 45.991 38.9609 47.1172C38.9609 48.2433 39.8744 49.1562 41.0013 49.1562Z" fill="#202324"/>
</svg>
