<svg width="64" height="64" viewBox="0 0 64 64" fill="none" xmlns="http://www.w3.org/2000/svg">
<g clip-path="url(#clip0_3209_28183)">
<circle cx="32" cy="32" r="32" fill="white"/>
<path d="M41.3516 44.6135V20.2652C41.3516 19.0428 40.3603 18.0518 39.1375 18.0518H25.8532C24.6304 18.0518 23.6392 19.0428 23.6392 20.2652V44.6135C23.6392 45.836 24.6304 46.827 25.8532 46.827H39.1375C40.3603 46.827 41.3516 45.836 41.3516 44.6135Z" stroke="#202324" stroke-width="2" stroke-linecap="round" stroke-linejoin="round"/>
<path d="M32.4957 24.6923C33.4128 24.6923 34.1563 23.949 34.1563 23.0322C34.1563 22.1153 33.4128 21.3721 32.4957 21.3721C31.5787 21.3721 30.8352 22.1153 30.8352 23.0322C30.8352 23.949 31.5787 24.6923 32.4957 24.6923Z" fill="#202324"/>
</g>
<defs>
<clipPath id="clip0_3209_28183">
<rect width="64" height="64" fill="white"/>
</clipPath>
</defs>
</svg>
