<svg width="64" height="64" viewBox="0 0 64 64" fill="none" xmlns="http://www.w3.org/2000/svg">
<g clip-path="url(#clip0_3144_18022)">
<circle cx="32" cy="32" r="32" fill="white"/>
<path d="M40.8555 44.1741V19.8258C40.8555 18.6033 39.8642 17.6123 38.6414 17.6123H25.3571C24.1343 17.6123 23.143 18.6033 23.143 19.8258V44.1741C23.143 45.3965 24.1343 46.3875 25.3571 46.3875H38.6414C39.8642 46.3875 40.8555 45.3965 40.8555 44.1741Z" stroke="#0A0F16" stroke-width="2" stroke-linecap="round" stroke-linejoin="round"/>
<path d="M31.9994 24.2529C32.9165 24.2529 33.6599 23.5096 33.6599 22.5928C33.6599 21.6759 32.9165 20.9326 31.9994 20.9326C31.0823 20.9326 30.3389 21.6759 30.3389 22.5928C30.3389 23.5096 31.0823 24.2529 31.9994 24.2529Z" fill="#0A0F16"/>
</g>
<defs>
<clipPath id="clip0_3144_18022">
<rect width="64" height="64" fill="white"/>
</clipPath>
</defs>
</svg>
