<svg width="64" height="64" viewBox="0 0 64 64" fill="none" xmlns="http://www.w3.org/2000/svg">
<g clip-path="url(#clip0_3183_21398)">
<circle opacity="0.5" cx="32" cy="32" r="32" fill="#F0F0F0"/>
<path d="M40.8555 44.1741V19.8258C40.8555 18.6033 39.8642 17.6123 38.6414 17.6123H25.3571C24.1343 17.6123 23.143 18.6033 23.143 19.8258V44.1741C23.143 45.3965 24.1343 46.3875 25.3571 46.3875H38.6414C39.8642 46.3875 40.8555 45.3965 40.8555 44.1741Z" stroke="#0A0F16" stroke-width="2" stroke-linecap="round" stroke-linejoin="round"/>
<path d="M32.0004 24.2528C32.9175 24.2528 33.6609 23.5096 33.6609 22.5927C33.6609 21.6759 32.9175 20.9326 32.0004 20.9326C31.0833 20.9326 30.3398 21.6759 30.3398 22.5927C30.3398 23.5096 31.0833 24.2528 32.0004 24.2528Z" fill="#0A0F16"/>
</g>
<defs>
<clipPath id="clip0_3183_21398">
<rect width="64" height="64" fill="white"/>
</clipPath>
</defs>
</svg>
