<svg width="60" height="60" viewBox="0 0 60 60" fill="none" xmlns="http://www.w3.org/2000/svg">
<g clip-path="url(#clip0_3168_19110)">
<circle opacity="0.5" cx="30" cy="30" r="30" fill="#F0F0F0"/>
<path d="M38.4668 41.4653V19.5347C38.4668 18.4336 37.5742 17.541 36.4731 17.541H24.511C23.4099 17.541 22.5173 18.4336 22.5173 19.5347V41.4653C22.5173 42.5664 23.4099 43.459 24.511 43.459H36.4731C37.5742 43.459 38.4668 42.5664 38.4668 41.4653Z" stroke="#0A0F16" stroke-width="1.5" stroke-linecap="round" stroke-linejoin="round"/>
<path d="M30.4914 23.5223C31.3172 23.5223 31.9866 22.8528 31.9866 22.027C31.9866 21.2012 31.3172 20.5317 30.4914 20.5317C29.6655 20.5317 28.9961 21.2012 28.9961 22.027C28.9961 22.8528 29.6655 23.5223 30.4914 23.5223Z" fill="#0A0F16"/>
</g>
<defs>
<clipPath id="clip0_3168_19110">
<rect width="60" height="60" fill="white"/>
</clipPath>
</defs>
</svg>
