<svg width="284" height="140" viewBox="0 0 284 140" fill="none" xmlns="http://www.w3.org/2000/svg">
<g clip-path="url(#clip0_3112_16708)">
<rect opacity="0.3" width="284" height="140" rx="8" fill="#F0F0F0"/>
<path d="M70.0459 47.8673C67.6734 48.136 64.1148 49.2522 62.0901 50.3684C56.6499 53.3243 52.9686 57.9337 51.1279 64.0728C50.7598 65.2717 50.3303 68.5376 50.3507 70.0672C50.3507 71.4108 50.7598 74.6973 51.0052 75.4828C51.1279 75.8549 51.3938 76.7437 51.6188 77.4258C51.9869 78.5833 53.7662 82.2213 54.073 82.4694C54.1343 82.5314 54.4616 82.9448 54.7683 83.4202C55.5251 84.5571 57.5089 86.5827 59.0019 87.7403C60.1472 88.6291 63.3786 90.5101 63.7876 90.5308C63.8899 90.5308 63.9103 89.7453 63.8489 88.7118C63.7058 86.4174 64.1353 83.2962 65.0556 80.1129C65.2192 79.5755 65.3419 78.8727 65.3419 78.5627C65.3419 78.2526 65.4237 77.9219 65.526 77.8185C65.6283 77.6945 65.8123 77.0951 65.9146 76.475C66.0373 75.8549 66.2418 74.904 66.385 74.3666C66.5895 73.5605 66.569 73.2504 66.2827 72.3823C65.8737 71.0594 65.8532 68.9097 66.2623 67.8761C67.2235 65.4164 68.287 64.4862 70.0868 64.4862C72.2547 64.4862 73.2977 66.1398 72.8887 68.9097C72.7046 70.1705 72.1933 72.1549 71.8661 72.775C71.7843 72.961 71.6411 73.4778 71.5797 73.9119C71.4979 74.3666 71.3343 75.0074 71.2321 75.3588C70.9457 76.1649 71.4979 77.7359 72.2342 78.3353C72.9296 78.8934 74.3816 79.0588 75.711 78.7487C76.6518 78.542 77.0404 78.294 78.0221 77.3431C79.1878 76.1856 80.0673 74.842 80.0673 74.2012C80.0673 74.0152 80.1695 73.7672 80.2922 73.6431C80.8649 73.0644 81.1717 68.5583 80.7422 66.6566C80.2718 64.5689 78.8197 62.5225 76.9381 61.3237C75.0566 60.1041 71.1707 59.7527 68.7778 60.5795C67.1008 61.1583 65.6078 62.1298 64.6466 63.2667C63.7876 64.2795 62.8877 65.9331 62.8877 66.5119C62.8877 66.7186 62.7855 66.9873 62.6627 67.1113C62.54 67.2354 62.3969 68.0208 62.3355 68.8683C62.2333 70.1292 62.3151 70.708 62.6832 71.9482C62.9286 72.7957 63.3786 73.7878 63.6444 74.1599C64.1966 74.904 64.1966 75.1934 63.6853 77.1778C63.5422 77.7152 63.2968 78.2113 63.1536 78.2733C61.8651 78.7694 59.2473 75.6482 58.3679 72.5476C58.0406 71.3694 58.0202 67.1733 58.3474 65.9331C58.4906 65.4164 58.736 64.7136 58.8996 64.3415C59.0632 63.9901 59.2064 63.6387 59.2064 63.556C59.2064 63.4734 59.6154 62.7706 60.1267 62.0058C62.7855 57.9544 67.1008 55.8047 72.5614 55.8047C73.809 55.8047 75.0975 55.8874 75.4451 55.9907C78.2675 56.8795 79.0242 57.1689 80.1286 57.8304C82.2761 59.1326 83.8304 60.9103 85.3847 63.8868C85.487 64.0728 85.6302 64.5689 85.6915 64.9823C85.7733 65.3957 85.9165 65.7884 86.0187 65.8504C86.121 65.9125 86.2028 67.256 86.2028 68.8476C86.2028 71.7208 85.9983 72.8783 85.1393 75.2348C84.1781 77.8185 81.7034 80.671 79.4537 81.7872C78.1652 82.4073 75.7519 83.0895 74.7907 83.0895C73.5022 83.0895 70.9662 82.0146 70.2708 81.1465C69.9436 80.7537 69.6368 80.8984 69.6368 81.4565C69.6368 81.6632 69.555 82.0146 69.4323 82.2213C69.33 82.4073 69.146 82.9861 69.0437 83.5029C68.4506 86.2314 67.6121 88.4431 66.3236 90.5101C65.935 91.1509 66.2623 91.5229 67.3258 91.6676C67.8575 91.7503 68.5733 91.895 68.9006 91.9984C69.7186 92.2671 74.1567 92.2257 75.6497 91.957C76.9995 91.709 79.1878 91.0889 80.1695 90.6755C86.346 88.1123 91.0294 82.9034 93.0542 76.2683C94.1381 72.7337 94.1995 68.6203 93.2178 64.4862C92.8906 63.1426 92.7883 62.8326 91.9089 60.7656C90.6409 57.7477 87.7776 54.2131 84.8734 52.0427C82.3783 50.1824 79.9241 49.1075 76.0996 48.1774C75.0361 47.9293 71.2525 47.7226 70.0459 47.8673ZM124.591 55.3293C123.793 55.4533 122.525 56.7762 122.198 57.8097C121.85 58.9466 122.198 60.1661 123.18 61.117C125.348 63.246 129.111 61.241 128.64 58.1818C128.354 56.2388 126.595 54.9986 124.591 55.3293ZM102.298 56.5488C102.114 56.7555 102.114 81.6839 102.319 81.9733C102.421 82.1386 103.301 82.2006 105.018 82.18L107.575 82.1593L107.677 77.9632C107.759 74.5526 107.841 73.7258 108.086 73.5811C108.25 73.4778 109.641 73.3744 111.175 73.3744C114.529 73.3744 115.94 73.1264 117.474 72.2996C119.478 71.2041 120.644 69.6331 121.278 67.132C121.666 65.5611 121.666 64.4242 121.257 62.8119C120.889 61.365 120.726 61.0136 119.846 59.8354C118.762 58.3678 117.658 57.5617 115.858 56.9209C114.856 56.5902 114.017 56.5282 108.598 56.4661C105.223 56.4248 102.38 56.4661 102.298 56.5488ZM113.526 61.6957C114.897 62.1298 115.572 62.7499 115.878 63.8661C116.267 65.3337 115.981 66.6979 115.122 67.5247C114.181 68.4136 113.342 68.6203 110.602 68.6203C108.802 68.6203 108.25 68.5583 108.004 68.2895C107.739 68.0415 107.677 67.4421 107.677 65.0856C107.677 61.365 107.657 61.3857 110.5 61.3857C111.727 61.3857 112.913 61.5097 113.526 61.6957ZM149.399 60.4762C149.399 61.9024 149.297 63.246 149.194 63.4734C149.051 63.7421 148.765 63.8661 148.274 63.8661C147.906 63.8661 147.558 63.9488 147.517 64.0728C147.497 64.1762 147.497 64.8996 147.558 65.6644C147.661 67.0287 147.681 67.0493 148.295 67.194C148.642 67.256 149.031 67.38 149.154 67.4627C149.338 67.5661 149.399 69.199 149.399 73.3331C149.399 78.8934 149.419 79.1001 149.869 79.9269C150.81 81.6839 152.283 82.304 155.269 82.2213L157.273 82.1593L157.334 80.1543L157.396 78.1286H156.884C156.107 78.1286 154.962 77.5085 154.839 77.0124C154.778 76.7644 154.716 74.5733 154.716 72.1135C154.716 68.7236 154.778 67.5868 154.982 67.4214C155.125 67.2974 155.698 67.1733 156.25 67.132L157.273 67.07V63.9695L156.148 63.9074C155.535 63.8661 154.962 63.7214 154.88 63.5974C154.798 63.4527 154.716 62.1091 154.716 60.6002V57.8717H149.399V60.4762ZM225.418 57.9957C225.337 58.0784 225.275 59.3807 225.275 60.8896C225.275 63.8248 225.255 63.8661 224.13 63.8661C223.619 63.8661 223.619 63.8868 223.68 65.4577C223.741 67.0287 223.762 67.07 224.294 67.132C224.58 67.1733 224.928 67.318 225.03 67.4421C225.153 67.5868 225.275 70.0879 225.337 73.2711C225.398 76.3303 225.5 79.1208 225.582 79.4515C225.827 80.361 227.096 81.5185 228.302 81.9113C229.652 82.366 233.088 82.4073 233.436 81.9733C233.599 81.7872 233.661 81.0431 233.62 79.9683L233.558 78.2319L232.842 78.1079C232.065 77.9839 231.186 77.5705 230.961 77.2191C230.879 77.0951 230.797 74.842 230.797 72.2169C230.797 66.822 230.675 67.1733 232.454 67.1733C233.62 67.1733 233.722 66.9666 233.62 65.0856L233.558 63.9695L232.229 63.8661L230.9 63.7628L230.797 60.8689L230.695 57.9751L228.118 57.9131C226.707 57.8924 225.5 57.9337 225.418 57.9957ZM139.275 63.37C138.273 63.6387 137.107 64.3208 136.33 65.127C135.389 66.1192 135.144 66.0572 135.042 64.7963L134.98 63.9695H129.867V82.1593L132.444 82.2006C134.98 82.2627 135.042 82.242 135.164 81.7872C135.226 81.5392 135.287 78.9141 135.287 75.9375C135.287 70.0465 135.308 69.8812 136.514 68.7236C137.046 68.2069 137.332 68.1035 138.478 68.0415L139.807 67.9588L140.605 68.8063C141.545 69.7985 141.443 68.8476 141.525 77.4051C141.545 79.6789 141.566 81.6839 141.586 81.8906C141.627 82.18 141.955 82.2213 144.245 82.18L146.842 82.1593V67.6488L146.249 66.4706C145.227 64.4242 143.652 63.4527 141.239 63.3287C140.38 63.308 139.5 63.308 139.275 63.37ZM164.84 63.37C162.631 63.9695 161.568 64.5689 160.198 65.9331C158.357 67.8141 157.518 70.0052 157.518 72.961C157.539 78.1493 160.75 81.9939 165.495 82.4487C169.544 82.8414 172.673 81.6425 174.677 78.9347C174.964 78.542 175.577 77.2811 175.577 77.0537C175.577 76.9711 174.391 76.8884 172.96 76.8884H170.342L169.728 77.5292C169.012 78.2733 168.01 78.7487 167.09 78.7487C166.169 78.7487 164.758 78.0873 164.104 77.3845C163.613 76.8264 162.897 75.2141 162.897 74.656C162.897 74.47 164.39 74.4079 169.196 74.4079C172.653 74.4079 175.577 74.3253 175.721 74.2426C176.027 74.0359 175.741 70.7493 175.291 69.5504C174.371 67.0493 172.632 64.941 170.873 64.1968C170.362 63.9901 169.769 63.7214 169.564 63.6181C169.135 63.3907 165.495 63.2047 164.84 63.37ZM168.828 67.8968C169.626 68.4549 170.321 69.7778 170.219 70.5219C170.158 70.9973 170.117 70.9973 166.66 71.0594C162.672 71.1214 162.652 71.1007 163.286 69.6124C163.736 68.5789 164.636 67.6488 165.474 67.38C166.435 67.07 167.99 67.318 168.828 67.8968ZM195.109 63.37C192.736 64.0108 191.08 65.065 189.791 66.6979C189.28 67.3594 188.871 67.9795 188.871 68.1035C188.871 68.2069 188.728 68.5789 188.544 68.9303C188.36 69.261 188.094 70.2946 187.951 71.2247C187.235 75.6482 189.198 79.7822 192.88 81.6425L194.291 82.366H197.256C200.324 82.366 200.59 82.304 202.471 81.2912C203.842 80.547 206.091 77.6532 205.744 77.0744C205.662 76.9711 204.496 76.8884 203.126 76.8884H200.61L200.099 77.4878C198.054 79.8236 194.229 78.6247 193.411 75.3794C193.289 74.9454 193.289 74.5733 193.391 74.4906C193.493 74.4286 196.418 74.3873 199.915 74.4079C204.905 74.4079 206.255 74.3666 206.276 74.1599C206.46 71.5761 205.232 67.7521 203.699 66.0985C202.84 65.1683 201.347 64.1348 200.61 63.9488C200.283 63.8661 199.915 63.7214 199.772 63.6181C199.486 63.3907 195.743 63.2047 195.109 63.37ZM198.299 67.4007C199.22 67.7314 200.283 68.889 200.447 69.7778C200.692 71.1214 200.713 71.1214 196.909 71.0594C193.493 70.9973 193.473 70.9973 193.411 70.5219C193.33 69.9432 194.045 68.5169 194.659 67.9795C195.538 67.2354 197.072 66.9873 198.299 67.4007ZM212.902 63.37C208.709 64.3829 207.196 65.8918 207.175 69.0337C207.175 72.4236 208.852 73.8498 213.822 74.7387C217.238 75.3381 218.219 75.8755 218.179 77.1778C218.158 78.1079 217.524 78.7074 216.256 78.9761C214.661 79.3275 213.413 78.9347 212.411 77.7979L211.613 76.8884H209.139C207.135 76.8884 206.664 76.9504 206.664 77.1778C206.664 77.7772 207.482 79.3481 208.157 80.1336C208.791 80.8157 209.282 81.1465 211.204 82.0766C211.389 82.18 212.391 82.3453 213.393 82.4694C215.254 82.6967 218.485 82.49 219.303 82.0766C219.487 81.9939 220.019 81.7252 220.469 81.5185C221.635 80.9604 222.739 79.6995 223.148 78.5007C223.598 77.1364 223.476 75.2348 222.842 73.9119C222.085 72.3616 220.081 71.2454 217.095 70.708C213.25 70.0258 213.188 70.0052 212.575 69.4057C211.838 68.6409 211.838 68.3722 212.575 67.5454C213.168 66.884 213.209 66.8633 214.845 66.8633C216.481 66.8633 216.522 66.884 217.115 67.5454C217.442 67.9175 217.708 68.3516 217.708 68.5169C217.708 68.765 218.138 68.827 220.265 68.827C223.087 68.827 223.005 68.889 222.514 67.4214C221.614 64.8169 219.303 63.494 215.458 63.3493C214.272 63.308 213.127 63.308 212.902 63.37ZM185.701 63.8041C184.801 64.1141 183.554 65.1477 183.165 65.8918C182.776 66.6359 182.429 66.3259 182.326 65.0856L182.224 63.9695H177.111L177.05 72.651C177.029 77.4258 177.05 81.5392 177.111 81.8079C177.213 82.2627 177.275 82.2627 179.729 82.2213C181.14 82.2006 182.286 82.0766 182.367 81.9526C182.449 81.8493 182.531 79.6582 182.531 77.0951C182.531 73.0437 182.572 72.3202 182.92 71.4108C183.635 69.5298 185.169 68.4136 187.092 68.4136C187.623 68.4136 187.848 68.3102 187.91 68.0415C188.053 67.4421 188.073 64.6516 187.951 64.0315C187.828 63.5354 187.726 63.4527 187.174 63.4734C186.805 63.494 186.151 63.6387 185.701 63.8041ZM122.709 64.1141C122.648 64.2588 122.628 68.3309 122.648 73.1677L122.709 81.9526L125.143 82.056C126.616 82.118 127.679 82.0766 127.843 81.9526C128.068 81.7872 128.129 80.0303 128.129 73.0024C128.15 68.2069 128.088 64.1762 128.027 64.0728C127.822 63.7627 122.812 63.8041 122.709 64.1141Z" fill="#969DA0"/>
</g>
<defs>
<clipPath id="clip0_3112_16708">
<rect width="284" height="140" fill="white"/>
</clipPath>
</defs>
</svg>
