<svg width="64" height="64" viewBox="0 0 64 64" fill="none" xmlns="http://www.w3.org/2000/svg">
<g clip-path="url(#clip0_3145_17719)">
<circle cx="32" cy="32" r="32" fill="white"/>
<path d="M37.0787 25.2535L25.4949 37.0289C25.1114 37.4521 24.9053 38.0064 24.9194 38.5773C24.9334 39.1481 25.1665 39.6916 25.5704 40.0954C25.9743 40.4991 26.518 40.7322 27.0889 40.7462C27.6599 40.7603 28.2144 40.5543 28.6377 40.1709L42.4464 26.1711C43.2134 25.3248 43.6255 24.2161 43.5974 23.0744C43.5693 21.9328 43.1031 20.8456 42.2954 20.0381C41.4877 19.2306 40.4003 18.7646 39.2583 18.7365C38.1164 18.7083 37.0074 19.1203 36.1609 19.8871L22.3521 33.887C21.1018 35.1369 20.3994 36.8322 20.3994 38.5999C20.3994 40.3676 21.1018 42.0629 22.3521 43.3129C23.6024 44.5628 25.2981 45.265 27.0663 45.265C28.8344 45.265 30.5302 44.5628 31.7804 43.3129L43.1974 31.9267" stroke="#0A0F16" stroke-width="2" stroke-linecap="round" stroke-linejoin="round"/>
</g>
<defs>
<clipPath id="clip0_3145_17719">
<rect width="64" height="64" fill="white"/>
</clipPath>
</defs>
</svg>
