<svg width="284" height="140" viewBox="0 0 284 140" fill="none" xmlns="http://www.w3.org/2000/svg">
<g clip-path="url(#clip0_3112_16707)">
<rect opacity="0.3" width="284" height="140" rx="8" fill="#F0F0F0"/>
<path d="M91.8483 70.3278C91.8483 82.5232 81.9705 92.401 69.775 92.401C57.5796 92.401 47.7018 82.5232 47.7018 70.3278C47.7018 58.1323 57.5796 48.2545 69.775 48.2545C81.9705 48.2545 91.8483 58.1323 91.8483 70.3278Z" fill="#969DA0"/>
<path d="M72.7192 70.3279H66.4651V63.7059H72.7192C74.5403 63.7059 76.0302 65.1959 76.0302 67.0169C76.0302 68.8379 74.5403 70.3279 72.7192 70.3279ZM72.7192 59.2913H62.0505V81.3645H66.4651V74.7425H72.7192C76.9867 74.7425 80.4448 71.2844 80.4448 67.0169C80.4448 62.7494 76.9867 59.2913 72.7192 59.2913Z" fill="white"/>
<path d="M115.043 67.6241C115.043 66.4101 114.105 65.6743 112.891 65.6743H109.635V69.5555H112.891C114.105 69.5555 115.043 68.8197 115.043 67.6241V67.6241ZM106.563 77.6858V62.9703H113.332C116.477 62.9703 118.188 65.0857 118.188 67.6241C118.188 70.1441 116.459 72.2595 113.332 72.2595H109.653V77.6858H106.563Z" fill="#969DA0"/>
<path d="M120.046 77.6858V66.9619H122.805V68.3782C123.56 67.4769 124.847 66.7043 126.153 66.7043V69.3899C125.951 69.3531 125.712 69.3347 125.399 69.3347C124.479 69.3347 123.265 69.8498 122.824 70.5304V77.7042H120.046V77.6858Z" fill="#969DA0"/>
<path d="M135.408 72.1859C135.408 70.5672 134.452 69.1508 132.723 69.1508C131.012 69.1508 130.056 70.5672 130.056 72.1859C130.056 73.8414 131.012 75.2393 132.723 75.2393C134.452 75.2393 135.408 73.823 135.408 72.1859ZM127.186 72.1859C127.186 69.2244 129.265 66.7043 132.704 66.7043C136.181 66.7043 138.259 69.2244 138.259 72.1859C138.259 75.1474 136.181 77.6858 132.704 77.6858C129.265 77.6858 127.186 75.1474 127.186 72.1859Z" fill="#969DA0"/>
<path d="M147.527 74.0437V70.3465C147.067 69.6475 146.073 69.1508 145.172 69.1508C143.59 69.1508 142.505 70.3833 142.505 72.1859C142.505 74.007 143.59 75.2394 145.172 75.2394C146.073 75.2394 147.067 74.7427 147.527 74.0437ZM147.527 77.6858V76.0855C146.699 77.134 145.577 77.6858 144.289 77.6858C141.659 77.6858 139.654 75.6992 139.654 72.1859C139.654 68.783 141.622 66.7044 144.289 66.7044C145.522 66.7044 146.699 67.2194 147.527 68.3047V62.9703H150.304V77.6858H147.527Z" fill="#969DA0"/>
<path d="M160.091 77.6857V76.1038C159.373 76.8764 158.123 77.6857 156.412 77.6857C154.113 77.6857 153.027 76.4349 153.027 74.3931V66.9618H155.787V73.3078C155.787 74.761 156.541 75.2393 157.718 75.2393C158.785 75.2393 159.631 74.6506 160.109 74.0436V66.9618H162.868V77.6857H160.091Z" fill="#969DA0"/>
<path d="M164.91 72.1859C164.91 68.9852 167.246 66.7043 170.465 66.7043C172.617 66.7043 173.905 67.6425 174.604 68.599L172.801 70.2912C172.305 69.5555 171.55 69.1692 170.594 69.1692C168.92 69.1692 167.761 70.3832 167.761 72.2043C167.761 74.0253 168.938 75.2577 170.594 75.2577C171.55 75.2577 172.305 74.8163 172.801 74.1173L174.604 75.8096C173.905 76.7661 172.617 77.7226 170.465 77.7226C167.246 77.6858 164.91 75.4049 164.91 72.1859Z" fill="#969DA0"/>
<path d="M176.976 74.7977V69.353H175.247V66.9433H176.976V64.0922H179.735V66.9617H181.851V69.3713H179.735V74.0803C179.735 74.7609 180.085 75.2575 180.692 75.2575C181.096 75.2575 181.501 75.1104 181.648 74.9264L182.237 77.0234C181.832 77.3913 181.096 77.704 179.938 77.704C177.988 77.6856 176.976 76.6923 176.976 74.7977" fill="#969DA0"/>
<path d="M199.474 77.6858V71.3398H192.649V77.6858H189.577V62.9703H192.649V68.6542H199.474V62.9703H202.582V77.6858H199.474Z" fill="#969DA0"/>
<path d="M212.424 77.6857V76.1038C211.706 76.8764 210.455 77.6857 208.745 77.6857C206.445 77.6857 205.36 76.4349 205.36 74.3931V66.9618H208.119V73.3078C208.119 74.761 208.873 75.2393 210.051 75.2393C211.118 75.2393 211.964 74.6506 212.442 74.0436V66.9618H215.201V77.6857H212.424Z" fill="#969DA0"/>
<path d="M224.971 77.6858V71.1006C224.971 69.6474 224.216 69.1508 223.039 69.1508C221.954 69.1508 221.126 69.7578 220.648 70.3648V77.6858H217.889V66.9619H220.648V68.3047C221.329 67.5321 222.616 66.7043 224.308 66.7043C226.626 66.7043 227.73 68.0103 227.73 70.0337V77.6858H224.971Z" fill="#969DA0"/>
<path d="M231.037 74.7977V69.353H229.308V66.9433H231.037V64.0922H233.797V66.9617H235.912V69.3713H233.797V74.0803C233.797 74.7609 234.146 75.2575 234.753 75.2575C235.158 75.2575 235.562 75.1104 235.71 74.9264L236.298 77.0234C235.894 77.3913 235.158 77.704 233.999 77.704C232.049 77.6856 231.037 76.6923 231.037 74.7977" fill="#969DA0"/>
</g>
<defs>
<clipPath id="clip0_3112_16707">
<rect width="284" height="140" fill="white"/>
</clipPath>
</defs>
</svg>
