<svg width="61" height="60" viewBox="0 0 61 60" fill="none" xmlns="http://www.w3.org/2000/svg">
<g clip-path="url(#clip0_3134_17598)">
<ellipse cx="30.0015" cy="30" rx="30.0015" ry="30" fill="#0A0F16"/>
<path d="M25.0015 43.0015H35.0015" stroke="white" stroke-width="2" stroke-linecap="round" stroke-linejoin="round"/>
<path d="M30.0015 39.0015V32.0015" stroke="white" stroke-width="2" stroke-linecap="round" stroke-linejoin="round"/>
<path d="M26.0015 28.0015L30.0015 32.0015L34.0015 28.0015" stroke="white" stroke-width="2" stroke-linecap="round" stroke-linejoin="round"/>
<path d="M23.8391 34.8763C22.6486 33.9507 21.6843 32.7662 21.0195 31.4126C20.3546 30.059 20.0065 28.5719 20.0016 27.0638C19.9766 21.6388 24.3391 17.1263 29.7641 17.0013C31.8637 16.9516 33.9256 17.5641 35.6575 18.7521C37.3894 19.94 38.7033 21.6431 39.413 23.6197C40.1226 25.5964 40.1918 27.7463 39.6109 29.7645C39.03 31.7828 37.8284 33.5669 36.1766 34.8638C35.8117 35.1459 35.5161 35.5077 35.3125 35.9215C35.1088 36.3353 35.0025 36.7901 35.0016 37.2513V38.0013C35.0016 38.2666 34.8962 38.5209 34.7087 38.7085C34.5211 38.896 34.2668 39.0013 34.0016 39.0013H26.0016C25.7364 39.0013 25.482 38.896 25.2945 38.7085C25.1069 38.5209 25.0016 38.2666 25.0016 38.0013V37.2513C24.9984 36.7936 24.8923 36.3425 24.6911 35.9313C24.4898 35.5202 24.1986 35.1596 23.8391 34.8763V34.8763Z" stroke="white" stroke-width="2" stroke-linecap="round" stroke-linejoin="round"/>
</g>
<defs>
<clipPath id="clip0_3134_17598">
<rect width="60.003" height="60" fill="white"/>
</clipPath>
</defs>
</svg>
