<svg width="61" height="60" viewBox="0 0 61 60" fill="none" xmlns="http://www.w3.org/2000/svg">
<g clip-path="url(#clip0_3134_17600)">
<ellipse cx="30.0015" cy="30" rx="30.0015" ry="30" fill="white"/>
<path d="M32.0015 42.876H28.0015" stroke="#0A0F16" stroke-width="2" stroke-linecap="round" stroke-linejoin="round"/>
<path d="M29.3769 17.3512C27.0019 19.2512 19.0644 26.8512 26.0019 38.8762H34.0019C40.8019 26.8512 32.9769 19.2637 30.6269 17.3512C30.4515 17.2047 30.2303 17.1245 30.0019 17.1245C29.7734 17.1245 29.5522 17.2047 29.3769 17.3512Z" stroke="#0A0F16" stroke-width="2" stroke-linecap="round" stroke-linejoin="round"/>
<path d="M23.2392 28.8008L19.3142 33.5008C19.2153 33.6161 19.1455 33.7535 19.1107 33.9014C19.0759 34.0493 19.0771 34.2034 19.1142 34.3508L20.6517 41.3133C20.6888 41.4788 20.7673 41.6321 20.88 41.7589C20.9927 41.8857 21.1358 41.9817 21.2958 42.0379C21.4558 42.0942 21.6275 42.1088 21.7947 42.0804C21.9619 42.0521 22.1191 41.9817 22.2517 41.8758L26.0017 38.8758" stroke="#0A0F16" stroke-width="2" stroke-linecap="round" stroke-linejoin="round"/>
<path d="M36.689 28.7012L40.689 33.5012C40.7878 33.6165 40.8576 33.7539 40.8924 33.9018C40.9272 34.0497 40.926 34.2038 40.889 34.3512L39.3515 41.3137C39.3144 41.4792 39.2358 41.6325 39.1231 41.7593C39.0104 41.886 38.8674 41.9821 38.7073 42.0383C38.5473 42.0946 38.3757 42.1092 38.2084 42.0808C38.0412 42.0525 37.884 41.982 37.7515 41.8762L34.0015 38.8762" stroke="#0A0F16" stroke-width="2" stroke-linecap="round" stroke-linejoin="round"/>
</g>
<defs>
<clipPath id="clip0_3134_17600">
<rect width="60.003" height="60" fill="white"/>
</clipPath>
</defs>
</svg>
