<svg width="64" height="64" viewBox="0 0 64 64" fill="none" xmlns="http://www.w3.org/2000/svg">
<g clip-path="url(#clip0_3113_16738)">
<circle cx="32" cy="32" r="32" fill="white"/>
<path d="M22.0161 20.4781V28.1391C22.0161 33.6589 26.4375 38.2332 31.9573 38.2749C33.2777 38.2841 34.5869 38.0319 35.8095 37.533C37.0321 37.034 38.1439 36.2981 39.0809 35.3676C40.0178 34.4371 40.7614 33.3304 41.2689 32.1113C41.7763 30.8922 42.0375 29.5847 42.0375 28.2642V20.4781C42.0375 20.1831 41.9203 19.9002 41.7117 19.6916C41.5031 19.483 41.2202 19.3658 40.9252 19.3658H23.1284C22.8334 19.3658 22.5505 19.483 22.3419 19.6916C22.1333 19.9002 22.0161 20.1831 22.0161 20.4781Z" stroke="#0A0F16" stroke-width="2" stroke-linecap="round" stroke-linejoin="round"/>
<path d="M27.5778 43.8363H36.4762" stroke="#0A0F16" stroke-width="2" stroke-linecap="round" stroke-linejoin="round"/>
<path d="M32.0267 38.2753V43.8368" stroke="#0A0F16" stroke-width="2" stroke-linecap="round" stroke-linejoin="round"/>
<path d="M41.787 30.4886H43.1496C44.3296 30.4886 45.4612 30.0199 46.2956 29.1855C47.13 28.3511 47.5988 27.2194 47.5988 26.0394V23.8148C47.5988 23.5198 47.4816 23.2369 47.273 23.0283C47.0644 22.8197 46.7815 22.7025 46.4865 22.7025H42.0373" stroke="#0A0F16" stroke-width="2" stroke-linecap="round" stroke-linejoin="round"/>
<path d="M22.2941 30.4887H20.8898C19.7098 30.4887 18.5782 30.02 17.7438 29.1856C16.9094 28.3512 16.4406 27.2195 16.4406 26.0395V23.8149C16.4406 23.5199 16.5578 23.237 16.7664 23.0284C16.975 22.8198 17.2579 22.7026 17.5529 22.7026H22.0021" stroke="#0A0F16" stroke-width="2" stroke-linecap="round" stroke-linejoin="round"/>
</g>
<defs>
<clipPath id="clip0_3113_16738">
<rect width="64" height="64" fill="white"/>
</clipPath>
</defs>
</svg>
