<svg width="64" height="64" viewBox="0 0 64 64" fill="none" xmlns="http://www.w3.org/2000/svg">
<g clip-path="url(#clip0_3145_17718)">
<circle cx="32" cy="32" r="32" fill="white"/>
<path d="M42.7644 23.9257H19.6783C19.0987 23.9257 18.6289 24.3954 18.6289 24.9748V41.7603C18.6289 42.3397 19.0987 42.8094 19.6783 42.8094H42.7644C43.344 42.8094 43.8138 42.3397 43.8138 41.7603V24.9748C43.8138 24.3954 43.344 23.9257 42.7644 23.9257Z" stroke="#0A0F16" stroke-width="2" stroke-linecap="round" stroke-linejoin="round"/>
<path d="M36.4683 23.9256V21.8274C36.4683 21.271 36.2472 20.7373 35.8536 20.3438C35.46 19.9503 34.9262 19.7292 34.3696 19.7292H28.0733C27.5167 19.7292 26.9829 19.9503 26.5893 20.3438C26.1957 20.7373 25.9746 21.271 25.9746 21.8274V23.9256" stroke="#0A0F16" stroke-width="2" stroke-linecap="round" stroke-linejoin="round"/>
<path d="M29.6475 30.2202H32.7956" stroke="#0A0F16" stroke-width="2" stroke-linecap="round" stroke-linejoin="round"/>
</g>
<defs>
<clipPath id="clip0_3145_17718">
<rect width="64" height="64" fill="white"/>
</clipPath>
</defs>
</svg>
