<svg width="284" height="140" viewBox="0 0 284 140" fill="none" xmlns="http://www.w3.org/2000/svg">
<g clip-path="url(#clip0_3112_16699)">
<rect opacity="0.3" width="284" height="140" rx="8" fill="#F0F0F0"/>
<path d="M215.607 53.0138H208.529V43.1051H192.988L185.842 53.0138H173.141L168.895 57.2603V53.0138H158.986V43.1051H127.845V53.0138H84.0344L76.886 43.1051H61.3153V77.0776L81.1326 96.8949H100.95V91.2328L106.612 96.8949H144.831V91.2328L150.493 96.8949H168.895V91.2328L174.557 96.8949H209.945L222.685 84.1552V60.0914L215.607 53.0138ZM85.3792 67.169H75.4705V70H85.3792V81.3242H69.8084L64.1463 75.6621V45.9361H75.4705V55.8448H85.3792V67.169ZM127.845 81.3242H93.8723L88.2102 75.6621V55.8448H99.5344V70H102.365V55.8448H113.69V70H116.521V55.8448H127.845V81.3242ZM142 81.3242H130.676V55.8448H142V81.3242ZM142 53.0138H130.676V45.9361H142V53.0138ZM166.064 67.169H156.155V70H166.064V81.3242H150.493L144.831 75.6621V45.9361H156.155V55.8448H166.064V67.169ZM191.543 67.169H180.219V70H191.543V81.3242H174.557L168.895 75.6621V61.5069L174.557 55.8448H191.543V67.169ZM219.854 81.3242H208.529V67.169H205.698V81.3242H194.374V45.9361H205.698V55.8448H214.192L219.854 61.5069V81.3242Z" fill="#969DA0"/>
</g>
<defs>
<clipPath id="clip0_3112_16699">
<rect width="284" height="140" fill="white"/>
</clipPath>
</defs>
</svg>
