<svg width="64" height="64" viewBox="0 0 64 64" fill="none" xmlns="http://www.w3.org/2000/svg">
<g clip-path="url(#clip0_3171_19692)">
<circle cx="32" cy="32" r="32" fill="white"/>
<path d="M38.5156 41.7455C38.5156 42.6095 38.1724 43.4381 37.5614 44.0491C36.9505 44.6601 36.1218 45.0033 35.2578 45.0033C34.3938 45.0033 33.5651 44.6601 32.9542 44.0491C32.3432 43.4381 32 42.6095 32 41.7455V33.058" stroke="#0A0F16" stroke-width="2" stroke-linecap="round" stroke-linejoin="round"/>
<path d="M19.0095 33.0579C18.8591 33.0587 18.7101 33.0278 18.5724 32.9672C18.4347 32.9067 18.3112 32.8178 18.2101 32.7064C18.109 32.595 18.0324 32.4636 17.9854 32.3207C17.9383 32.1778 17.9219 32.0266 17.9372 31.8769C18.2465 28.3605 19.8619 25.0876 22.465 22.7034C25.0682 20.3192 28.4701 18.9967 32 18.9967C35.53 18.9967 38.9319 20.3192 41.535 22.7034C44.1382 25.0876 45.7536 28.3605 46.0629 31.8769C46.0782 32.0266 46.0617 32.1778 46.0147 32.3207C45.9677 32.4636 45.8911 32.595 45.79 32.7064C45.6888 32.8178 45.5654 32.9067 45.4277 32.9672C45.2899 33.0278 45.141 33.0587 44.9906 33.0579H19.0095Z" stroke="#0A0F16" stroke-width="2" stroke-linecap="round" stroke-linejoin="round"/>
</g>
<defs>
<clipPath id="clip0_3171_19692">
<rect width="64" height="64" fill="white"/>
</clipPath>
</defs>
</svg>
