<svg width="256" height="256" viewBox="0 0 256 256" fill="none" xmlns="http://www.w3.org/2000/svg">
<path fill-rule="evenodd" clip-rule="evenodd" d="M203.557 108C193.622 98.0655 177.514 98.0655 167.579 108L106.146 169.434C86.9305 188.649 55.7767 188.649 36.5616 169.434C17.3465 150.219 17.3465 119.065 36.5616 99.8499L121.865 14.5464C123.077 13.3344 125.042 13.3344 126.254 14.5464L138.017 26.3087C139.229 27.5208 139.229 29.4859 138.017 30.698L52.7131 116.001C42.4182 126.296 42.4183 142.988 52.7131 153.282C63.008 163.577 79.6992 163.577 89.9941 153.282L151.428 91.8489C170.283 72.9937 200.853 72.9937 219.708 91.8489C238.564 110.704 238.564 141.274 219.708 160.13L133.753 246.085C132.541 247.297 130.576 247.297 129.364 246.085L117.602 234.322C116.39 233.11 116.39 231.145 117.602 229.933L203.557 143.978C213.492 134.043 213.492 117.935 203.557 108Z" fill="#0A0F16"/>
<path fill-rule="evenodd" clip-rule="evenodd" d="M123.09 32.5759C123.09 30.8617 121.7 29.4722 119.986 29.4722L72.3382 29.4722C70.6241 29.4722 69.2345 28.0826 69.2345 26.3685L69.2345 12.1099C69.2345 10.3957 70.6241 9.00619 72.3382 9.00619L140.452 9.00618C142.166 9.00618 143.556 10.3957 143.556 12.1098L143.556 80.224C143.556 81.9382 142.166 83.3277 140.452 83.3277H126.194C124.48 83.3277 123.09 81.9382 123.09 80.224L123.09 32.5759Z" fill="#0A0F16"/>
</svg>
