<svg width="128" height="42" viewBox="0 0 128 42" fill="none" xmlns="http://www.w3.org/2000/svg">
<path d="M0 1.08691H5.28892L9.09812 16.6763L13.3468 1.08691H17.4381L21.6868 16.6763L25.496 1.08691H30.7849L24.7085 23.3586H18.9801L15.3906 10.2199L11.8012 23.3586H6.07274L0 1.08691Z" fill="white"/>
<path d="M30.7812 12.2187C30.7812 5.66608 35.9127 0.638672 42.2381 0.638672C48.5636 0.638672 53.695 5.66608 53.695 12.2187C53.695 18.7714 48.5636 23.7988 42.2381 23.7988C35.9127 23.7988 30.7812 18.7714 30.7812 12.2187ZM48.6588 12.2187C48.6588 8.24272 45.8276 5.59945 42.2381 5.59945C38.6487 5.59945 35.8174 8.23902 35.8174 12.2187C35.8174 16.1985 38.6487 18.8381 42.2381 18.8381C45.8276 18.8381 48.6588 16.1985 48.6588 12.2187Z" fill="white"/>
<path d="M63.6389 16.0396H61.2471V23.3586H56.2109V1.08691H65.0234C69.2098 1.08691 72.5758 4.49282 72.5758 8.72058C72.5758 11.4564 70.9386 13.9368 68.5139 15.1807L73.2021 23.3586H67.7887L63.6352 16.0396H63.6389ZM61.2471 11.586H65.0234C66.4079 11.586 67.5433 10.3458 67.5433 8.72429C67.5433 7.10278 66.4115 5.86258 65.0234 5.86258H61.2471V11.5897V11.586Z" fill="white"/>
<path d="M87.3408 23.3547L80.2901 13.0481V23.3547H75.2539V1.08301H80.2901V10.7528L87.0258 1.08301H92.7542L85.3263 11.9301L93.0692 23.351H87.3408V23.3547Z" fill="white"/>
<path d="M108.492 18.4568V23.3547H94.6436V1.08301H108.335V5.98085H99.6798V9.67182H107.547V14.5067H99.6798V18.4531H108.492V18.4568Z" fill="white"/>
<path d="M118.437 16.0396H116.045V23.3586H111.009V1.08691H119.821C124.008 1.08691 127.374 4.49282 127.374 8.72058C127.374 11.4564 125.736 13.9368 123.312 15.1807L128 23.3586H122.587L118.433 16.0396H118.437ZM116.045 11.586H119.821C121.206 11.586 122.341 10.3458 122.341 8.72429C122.341 7.10278 121.209 5.86258 119.821 5.86258H116.045V11.5897V11.586Z" fill="white"/>
<path d="M4.97069 31.4402C6.01822 31.4402 6.88627 31.8141 7.57486 32.5657C8.26711 33.3172 8.6114 34.2353 8.6114 35.32C8.6114 36.4047 8.26711 37.3265 7.57486 38.0743C6.88261 38.8259 6.01455 39.1998 4.97069 39.1998H1.97461V31.4365H4.97069V31.4402ZM4.97069 38.2261C5.7545 38.2261 6.39181 37.9485 6.88994 37.3932C7.38806 36.8378 7.63713 36.1456 7.63713 35.32C7.63713 34.4944 7.38806 33.8021 6.88994 33.2468C6.39181 32.6915 5.75084 32.4139 4.97069 32.4139H2.9965V38.2261H4.97069Z" fill="white"/>
<path d="M10.1239 32.6473C9.94075 32.6473 9.78691 32.5843 9.66238 32.4585C9.53785 32.3326 9.47559 32.1808 9.47559 32.0031C9.47559 31.8254 9.53785 31.6736 9.66238 31.5441C9.78691 31.4145 9.94075 31.3516 10.1239 31.3516C10.307 31.3516 10.4499 31.4145 10.5744 31.5441C10.6989 31.6736 10.7612 31.8254 10.7612 32.0031C10.7612 32.1808 10.6989 32.3326 10.5744 32.4585C10.4499 32.5843 10.2997 32.6473 10.1239 32.6473ZM9.64041 39.2V33.6543H10.5964V39.2H9.64041Z" fill="white"/>
<path d="M16.5 33.6583H17.445V38.9707C17.445 39.7926 17.1703 40.4293 16.6209 40.8847C16.0715 41.3401 15.4159 41.5659 14.6467 41.5659C14.0314 41.5659 13.5003 41.4511 13.0571 41.2179C12.6103 40.9847 12.2733 40.6515 12.0462 40.2146L12.8813 39.7371C13.1816 40.359 13.7787 40.67 14.6687 40.67C15.2401 40.67 15.6869 40.5182 16.0129 40.2146C16.3389 39.9111 16.5 39.4964 16.5 38.9744V38.1859C16.0166 38.9263 15.328 39.2965 14.4379 39.2965C13.6541 39.2965 12.9948 39.0152 12.4528 38.4524C11.9107 37.8897 11.6396 37.2048 11.6396 36.4015C11.6396 35.5981 11.9107 34.9133 12.4528 34.3542C12.9948 33.7952 13.6578 33.5176 14.4379 33.5176C15.339 33.5176 16.0239 33.8841 16.5 34.6171V33.662V33.6583ZM13.1523 37.8046C13.5259 38.1822 13.9911 38.371 14.5442 38.371C15.0972 38.371 15.566 38.1822 15.936 37.8046C16.3096 37.427 16.4964 36.9568 16.4964 36.3978C16.4964 35.8388 16.3096 35.376 15.936 35.0021C15.5624 34.6245 15.0972 34.4357 14.5442 34.4357C13.9911 34.4357 13.5223 34.6245 13.1523 35.0021C12.7824 35.3797 12.5919 35.8462 12.5919 36.3978C12.5919 36.9494 12.7787 37.4307 13.1523 37.8046Z" fill="white"/>
<path d="M19.2655 32.6473C19.0823 32.6473 18.9285 32.5843 18.804 32.4585C18.6795 32.3326 18.6172 32.1808 18.6172 32.0031C18.6172 31.8254 18.6795 31.6736 18.804 31.5441C18.9285 31.4145 19.0823 31.3516 19.2655 31.3516C19.4486 31.3516 19.5915 31.4145 19.716 31.5441C19.8405 31.6736 19.9028 31.8254 19.9028 32.0031C19.9028 32.1808 19.8405 32.3326 19.716 32.4585C19.5915 32.5843 19.4413 32.6473 19.2655 32.6473ZM18.782 39.2V33.6543H19.738V39.2H18.782Z" fill="white"/>
<path d="M24.0714 34.5866H22.6136V37.5927C22.6136 37.8667 22.6649 38.0592 22.7748 38.1739C22.881 38.2887 23.0421 38.3479 23.2619 38.3516C23.4817 38.3553 23.7527 38.3516 24.075 38.3368V39.2031C23.2399 39.3142 22.6319 39.2438 22.2437 38.9995C21.8554 38.7515 21.6613 38.285 21.6613 37.5964V34.5903H20.5735V33.6574H21.6613V32.3913L22.6173 32.1025V33.6537H24.075V34.5866H24.0714Z" fill="white"/>
<path d="M29.3604 33.6581H30.3163V39.2038H29.3604V38.2486C28.8842 38.9816 28.192 39.3481 27.2873 39.3481C26.5181 39.3481 25.8662 39.0668 25.3241 38.5004C24.782 37.9339 24.511 37.2454 24.511 36.4309C24.511 35.6165 24.782 34.9279 25.3241 34.3614C25.8662 33.795 26.5218 33.5137 27.2873 33.5137C28.1957 33.5137 28.8842 33.8802 29.3604 34.6132V33.6581ZM27.4082 38.4152C27.9649 38.4152 28.4301 38.2264 28.8 37.8451C29.1736 37.4638 29.3604 36.9936 29.3604 36.4309C29.3604 35.8682 29.1736 35.398 28.8 35.0167C28.4264 34.6354 27.9612 34.4466 27.4082 34.4466C26.8551 34.4466 26.3973 34.6354 26.0237 35.0167C25.6501 35.398 25.4633 35.8682 25.4633 36.4309C25.4633 36.9936 25.6501 37.4638 26.0237 37.8451C26.3973 38.2264 26.8588 38.4152 27.4082 38.4152Z" fill="white"/>
<path d="M31.6533 39.2038V31.1074H32.6093V39.2038H31.6533Z" fill="white"/>
<path d="M41.7468 39.2037L41.1204 37.4637H37.6665L37.0402 39.2037H35.9561L38.8203 31.4404H39.9704L42.8346 39.2037H41.7468ZM38.0145 36.4975H40.7725L39.3917 32.6658L38.0108 36.4975H38.0145Z" fill="white"/>
<path d="M47.9551 33.6583H48.9001V38.9707C48.9001 39.7926 48.6254 40.4293 48.076 40.8847C47.5266 41.3401 46.871 41.5659 46.1018 41.5659C45.4865 41.5659 44.959 41.4511 44.5122 41.2179C44.0653 40.9847 43.7284 40.6515 43.5013 40.2146L44.3364 39.7371C44.6367 40.359 45.2337 40.67 46.1238 40.67C46.6951 40.67 47.142 40.5182 47.468 40.2146C47.794 39.9111 47.9551 39.4964 47.9551 38.9744V38.1859C47.4716 38.9263 46.7831 39.2965 45.893 39.2965C45.1092 39.2965 44.4463 39.0152 43.9078 38.4524C43.3694 37.8897 43.0947 37.2048 43.0947 36.4015C43.0947 35.5981 43.3658 34.9133 43.9078 34.3542C44.4499 33.7952 45.1129 33.5176 45.893 33.5176C46.794 33.5176 47.479 33.8841 47.9551 34.6171V33.662V33.6583ZM44.6074 37.8046C44.981 38.1822 45.4462 38.371 45.9992 38.371C46.5523 38.371 47.0211 38.1822 47.3911 37.8046C47.761 37.427 47.9514 36.9568 47.9514 36.3978C47.9514 35.8388 47.7647 35.376 47.3911 35.0021C47.0175 34.6282 46.5523 34.4357 45.9992 34.4357C45.4462 34.4357 44.9773 34.6245 44.6074 35.0021C44.2338 35.3797 44.047 35.8462 44.047 36.3978C44.047 36.9494 44.2338 37.4307 44.6074 37.8046Z" fill="white"/>
<path d="M50.9076 36.8754C51.0029 37.3714 51.2263 37.7565 51.5816 38.0304C51.9368 38.3044 52.3727 38.4413 52.8928 38.4413C53.618 38.4413 54.1454 38.1711 54.4714 37.6306L55.2845 38.097C54.7498 38.9337 53.9477 39.352 52.8708 39.352C51.9991 39.352 51.2922 39.0781 50.7465 38.5265C50.2007 37.9749 49.9297 37.2789 49.9297 36.4348C49.9297 35.5907 50.1971 34.9059 50.7318 34.3505C51.2666 33.7952 51.9552 33.5176 52.8049 33.5176C53.6107 33.5176 54.2663 33.8026 54.7754 34.3765C55.2845 34.9503 55.5373 35.6389 55.5373 36.4459C55.5373 36.5866 55.5263 36.731 55.5043 36.8791H50.9076V36.8754ZM52.8049 34.4246C52.2921 34.4246 51.8672 34.569 51.5339 34.8614C51.197 35.1539 50.9882 35.5426 50.9076 36.0313H54.574C54.4934 35.5056 54.2883 35.1058 53.9586 34.8318C53.629 34.5579 53.2444 34.4209 52.8049 34.4209V34.4246Z" fill="white"/>
<path d="M59.2582 33.5137C59.9029 33.5137 60.4193 33.7173 60.8039 34.1282C61.1921 34.5391 61.3863 35.0945 61.3863 35.7979V39.2038H60.4303V35.8534C60.4303 35.4017 60.3094 35.0537 60.0677 34.8057C59.826 34.5577 59.4927 34.4355 59.0678 34.4355C58.5916 34.4355 58.2071 34.5873 57.914 34.8834C57.621 35.1796 57.4745 35.6424 57.4745 36.2643V39.2038H56.5186V33.6581H57.4745V34.4577C57.8628 33.8283 58.4561 33.5137 59.2509 33.5137H59.2582Z" fill="white"/>
<path d="M65.1811 39.3481C64.3534 39.3481 63.6684 39.0705 63.119 38.5115C62.5696 37.9525 62.2949 37.2602 62.2949 36.4309C62.2949 35.6016 62.5696 34.9094 63.119 34.3503C63.6684 33.7913 64.357 33.5137 65.1811 33.5137C65.7232 33.5137 66.2103 33.6469 66.6389 33.9061C67.0711 34.1689 67.3934 34.5206 67.6058 34.9649L66.8037 35.4313C66.6645 35.1352 66.4521 34.8982 66.1627 34.7205C65.8734 34.5428 65.5474 34.454 65.1811 34.454C64.6317 34.454 64.1739 34.6428 63.8039 35.0204C63.434 35.398 63.2509 35.8682 63.2509 36.4272C63.2509 36.9862 63.434 37.449 63.8039 37.8229C64.1739 38.1968 64.6317 38.3893 65.1811 38.3893C65.5474 38.3893 65.877 38.3042 66.17 38.1302C66.4631 37.9562 66.6865 37.7229 66.8403 37.4268L67.6534 37.9043C67.419 38.3412 67.0821 38.6892 66.6425 38.952C66.203 39.2149 65.7159 39.3444 65.1848 39.3444L65.1811 39.3481Z" fill="white"/>
<path d="M72.3274 33.6582H73.3493L71.1114 39.5482C70.8769 40.1775 70.551 40.6551 70.1298 40.9846C69.7085 41.3141 69.2251 41.4585 68.6757 41.4215V40.5218C69.3459 40.5737 69.8367 40.1961 70.1517 39.389L70.258 39.1817L67.8662 33.6582H68.8881L70.7158 37.9082L72.331 33.6582H72.3274Z" fill="white"/>
</svg>
