<svg width="175" height="72" viewBox="0 0 175 72" fill="none" xmlns="http://www.w3.org/2000/svg">
<g clip-path="url(#clip0_555_252)">
<path d="M65.3541 0.119629H63.4161L60.001 4.16903H59.8941V0.119629H58.3076V8.93317H59.8941V6.30847L60.8654 5.15628L63.4779 8.93317H65.3826L61.9674 4.0758L65.3541 0.119629Z" fill="white"/>
<path d="M73.9035 0.537849C73.2979 0.179283 72.6115 0 71.8444 0C71.0773 0 70.391 0.179283 69.7854 0.537849C69.1798 0.896414 68.7 1.41275 68.3485 2.08924C67.997 2.76574 67.8213 3.57849 67.8213 4.52749C67.8213 5.47649 67.997 6.28446 68.3485 6.96096C68.7 7.63745 69.1798 8.15379 69.7854 8.51474C70.391 8.8757 71.0773 9.05498 71.8444 9.05498C72.6115 9.05498 73.2979 8.8757 73.9035 8.51713C74.5091 8.15857 74.9889 7.64223 75.3404 6.96574C75.6918 6.28924 75.8676 5.47649 75.8676 4.52749C75.8676 3.57849 75.6918 2.76574 75.3404 2.08924C74.9889 1.41275 74.5091 0.896414 73.9035 0.537849ZM73.9629 6.21992C73.7563 6.68128 73.4713 7.02789 73.1055 7.26454C72.7398 7.5012 72.3194 7.62072 71.8444 7.62072C71.3695 7.62072 70.9467 7.5012 70.5833 7.26454C70.2176 7.02789 69.9326 6.67888 69.726 6.21992C69.5194 5.75857 69.4173 5.19442 69.4173 4.52749C69.4173 3.86056 69.5194 3.29402 69.726 2.83506C69.9326 2.3761 70.2176 2.02709 70.5833 1.79044C70.9491 1.55378 71.3695 1.43665 71.8444 1.43665C72.3194 1.43665 72.7398 1.55378 73.1055 1.79044C73.4713 2.02709 73.7563 2.3761 73.9629 2.83506C74.1695 3.29641 74.2716 3.86056 74.2716 4.52749C74.2716 5.19442 74.1695 5.76096 73.9629 6.21992Z" fill="white"/>
<path d="M85.0417 4.73302C84.7971 4.53222 84.524 4.36489 84.2152 4.23342C83.9088 4.10194 83.5906 3.99676 83.2605 3.92027L82.4388 3.71469C82.2583 3.67166 82.0801 3.61907 81.9044 3.55453C81.7263 3.49238 81.5671 3.4135 81.4223 3.32027C81.2774 3.22704 81.161 3.1123 81.0779 2.97844C80.9948 2.84457 80.952 2.68441 80.952 2.50035C80.9544 2.28043 81.0185 2.08202 81.1444 1.90991C81.2703 1.7378 81.4508 1.60154 81.6883 1.50114C81.9258 1.40075 82.2084 1.35055 82.5385 1.35055C83.0087 1.35055 83.3911 1.45573 83.6856 1.66369C83.9801 1.87166 84.1487 2.16569 84.1891 2.54099H85.7162C85.7067 2.04377 85.5689 1.60393 85.3006 1.22146C85.0322 0.838993 84.6641 0.537798 84.1962 0.322658C83.7283 0.105128 83.1821 -0.00244141 82.5599 -0.00244141C81.9376 -0.00244141 81.3985 0.105128 80.914 0.322658C80.4296 0.540188 80.0472 0.843774 79.7669 1.23342C79.4867 1.62306 79.3466 2.07963 79.3466 2.59836C79.3466 3.22943 79.5556 3.7362 79.9736 4.11628C80.3916 4.49636 80.9592 4.78083 81.6811 4.96489L82.6762 5.22306C82.9897 5.30433 83.2652 5.39517 83.5004 5.49557C83.7355 5.59596 83.9183 5.72266 84.049 5.87326C84.1796 6.02385 84.2461 6.2127 84.2508 6.44457C84.2485 6.69796 84.1725 6.91788 84.0252 7.10433C83.878 7.29079 83.6713 7.43899 83.4125 7.54417C83.1512 7.64935 82.8496 7.70194 82.5029 7.70194C82.1561 7.70194 81.8735 7.65174 81.6075 7.55134C81.3415 7.45095 81.1254 7.29796 80.9592 7.09477C80.7929 6.89158 80.7003 6.63581 80.6765 6.32983H79.1162C79.14 6.91549 79.2896 7.41031 79.5722 7.81907C79.8524 8.22545 80.2443 8.5362 80.743 8.74895C81.2442 8.9617 81.8331 9.06688 82.5148 9.06688C83.1964 9.06688 83.8138 8.95692 84.3078 8.737C84.8018 8.51708 85.1818 8.2111 85.4431 7.82146C85.7067 7.42943 85.8373 6.97525 85.8373 6.45891C85.8373 6.07644 85.766 5.74417 85.6236 5.45971C85.4811 5.17525 85.2887 4.93381 85.0441 4.73302H85.0417Z" fill="white"/>
<path d="M95.1302 3.8511H91.0738V0.119629H89.4873V8.93317H91.0738V5.18975H95.1302V8.93317H96.7214V0.119629H95.1302V3.8511Z" fill="white"/>
<path d="M102.28 5.18975H106.094V3.8511H102.28V1.45827H106.388V0.119629H100.693V8.93317H106.424V7.59453H102.28V5.18975Z" fill="white"/>
<path d="M114.924 8.93317H116.694L114.796 5.43596C114.853 5.41206 114.912 5.39294 114.967 5.36664C115.428 5.14194 115.779 4.82162 116.017 4.40808C116.254 3.99453 116.373 3.50449 116.373 2.93796C116.373 2.37142 116.257 1.88377 116.021 1.46066C115.786 1.03756 115.44 0.707677 114.981 0.473414C114.523 0.239151 113.958 0.119629 113.286 0.119629H110.001V8.93317H111.587V5.70608H113.202L114.924 8.93317ZM111.59 1.45349H113.043C113.44 1.45349 113.763 1.51086 114.015 1.628C114.266 1.74513 114.452 1.91246 114.575 2.13477C114.699 2.35708 114.758 2.62481 114.758 2.93796C114.758 3.2511 114.699 3.51405 114.577 3.7268C114.456 3.93955 114.271 4.1021 114.019 4.21206C113.768 4.32202 113.447 4.377 113.053 4.377H111.59V1.45349Z" fill="white"/>
<path d="M73.6875 71.9282V67.8047H76.1598V68.2469H74.1839V69.6405H76.0316V70.0828H74.1839V71.4836H76.1907V71.9258H73.6875V71.9282Z" fill="white"/>
<path d="M79.43 68.8376C79.4062 68.6345 79.3088 68.4743 79.1378 68.362C78.9669 68.2496 78.7579 68.1922 78.5109 68.1922C78.3304 68.1922 78.1712 68.2209 78.0359 68.2807C77.9005 68.3404 77.796 68.4217 77.72 68.5245C77.644 68.6273 77.606 68.7444 77.606 68.8759C77.606 68.9859 77.6321 69.0791 77.6844 69.158C77.7366 69.2368 77.8055 69.3014 77.8886 69.354C77.9717 69.4066 78.0572 69.4472 78.1475 69.4807C78.2377 69.5141 78.3209 69.5404 78.3969 69.5596L78.8125 69.6719C78.9194 69.7006 79.0381 69.7388 79.1687 69.789C79.2993 69.8392 79.4252 69.9062 79.5463 69.9922C79.6675 70.0783 79.7672 70.1859 79.8456 70.3197C79.924 70.4536 79.9643 70.6161 79.9643 70.8098C79.9643 71.0321 79.9073 71.2329 79.791 71.4145C79.6746 71.5938 79.5083 71.7372 79.2875 71.8424C79.0666 71.9476 78.7982 72.0026 78.4847 72.0026C78.1902 72.0026 77.9385 71.9548 77.7248 71.8592C77.511 71.7635 77.3424 71.6321 77.2213 71.46C77.1001 71.2902 77.0313 71.0918 77.0146 70.8671H77.5276C77.5419 71.0225 77.5941 71.1516 77.6844 71.252C77.7746 71.3524 77.891 71.4289 78.0311 71.4767C78.1712 71.5269 78.3232 71.5508 78.4871 71.5508C78.6771 71.5508 78.8457 71.5197 78.9977 71.4576C79.1473 71.3954 79.2685 71.307 79.3563 71.197C79.4442 71.0847 79.4893 70.9532 79.4893 70.8026C79.4893 70.6663 79.4513 70.554 79.3753 70.4679C79.2993 70.3819 79.1996 70.3125 79.0761 70.2576C78.9526 70.205 78.8172 70.1572 78.6747 70.1165L78.1712 69.9707C77.8506 69.8775 77.5989 69.746 77.4113 69.5739C77.2236 69.4018 77.131 69.1771 77.131 68.8998C77.131 68.6679 77.1928 68.4671 77.3186 68.295C77.4445 68.1229 77.6108 67.989 77.8221 67.8934C78.0335 67.7978 78.2686 67.75 78.5322 67.75C78.7959 67.75 79.031 67.7978 79.2352 67.891C79.4395 67.9867 79.6033 68.1157 79.7245 68.2783C79.8456 68.4432 79.9097 68.6273 79.9145 68.8353H79.4347L79.43 68.8376Z" fill="white"/>
<path d="M80.6934 68.2494V67.8071H83.7665V68.2494H82.4793V71.9282H81.983V68.2494H80.6957H80.6934Z" fill="white"/>
<path d="M84.7575 71.9616C84.6577 71.9616 84.5746 71.9257 84.5034 71.854C84.4321 71.7823 84.3965 71.6986 84.3965 71.5982C84.3965 71.4978 84.4321 71.4141 84.5034 71.3424C84.5746 71.2707 84.6577 71.2349 84.7575 71.2349C84.8572 71.2349 84.9404 71.2707 85.0116 71.3424C85.0828 71.4141 85.1185 71.4978 85.1185 71.5982C85.1185 71.6651 85.1018 71.7249 85.0686 71.7799C85.0353 71.8349 84.9926 71.8779 84.938 71.9114C84.8834 71.9448 84.824 71.9616 84.7575 71.9616Z" fill="white"/>
<path d="M87.8105 71.9285V71.5651L89.1619 70.0759C89.321 69.9014 89.4516 69.7484 89.5538 69.6193C89.6559 69.4902 89.7319 69.3683 89.7818 69.2536C89.8316 69.1388 89.8577 69.0193 89.8577 68.8926C89.8577 68.7468 89.8245 68.6225 89.7556 68.5173C89.6868 68.4121 89.5941 68.3285 89.4754 68.2711C89.3566 68.2137 89.2236 68.1851 89.0764 68.1851C88.9196 68.1851 88.7819 68.2185 88.6655 68.2831C88.5492 68.3476 88.4589 68.4384 88.3948 68.5556C88.3307 68.6727 88.2998 68.809 88.2998 68.9667H87.8272C87.8272 68.7253 87.8818 68.5125 87.9934 68.3309C88.105 68.1492 88.2547 68.0058 88.447 67.903C88.6394 67.8002 88.8532 67.75 89.093 67.75C89.3329 67.75 89.5466 67.8002 89.7319 67.903C89.9171 68.0058 90.062 68.142 90.1689 68.3165C90.2734 68.4886 90.3256 68.6823 90.3256 68.895C90.3256 69.0456 90.2995 69.1938 90.2449 69.3396C90.1902 69.4831 90.0976 69.6432 89.9646 69.8201C89.8316 69.997 89.6488 70.2121 89.4136 70.4655L88.4945 71.4552V71.4862H90.3992V71.9285H87.8153H87.8105Z" fill="white"/>
<path d="M92.6906 71.9859C92.389 71.9859 92.1325 71.9022 91.9211 71.7372C91.7097 71.5723 91.5482 71.3309 91.4342 71.0153C91.3226 70.6998 91.2656 70.3173 91.2656 69.8679C91.2656 69.4185 91.3226 69.0408 91.4342 68.7253C91.5459 68.4098 91.7097 68.1683 91.9235 68.001C92.1372 67.8337 92.3913 67.75 92.6906 67.75C92.9898 67.75 93.2439 67.8337 93.4577 68.001C93.6714 68.1683 93.8329 68.4098 93.9446 68.7253C94.0562 69.0408 94.1132 69.4233 94.1132 69.8679C94.1132 70.3125 94.0562 70.6974 93.9446 71.0153C93.8329 71.3309 93.6714 71.5723 93.4577 71.7372C93.2463 71.9022 92.9898 71.9859 92.6882 71.9859H92.6906ZM92.6906 71.5436C92.9898 71.5436 93.2202 71.3978 93.3864 71.1086C93.5527 70.8193 93.6334 70.4058 93.6334 69.8679C93.6334 69.5117 93.5954 69.2082 93.5194 68.9572C93.4434 68.7062 93.3366 68.5149 93.1965 68.3835C93.0563 68.252 92.8877 68.1851 92.6882 68.1851C92.3913 68.1851 92.161 68.3309 91.9947 68.6249C91.8285 68.9189 91.7454 69.3325 91.7454 69.8679C91.7454 70.2241 91.7834 70.5277 91.857 70.7787C91.9306 71.0273 92.0399 71.2185 92.18 71.3476C92.3201 71.4767 92.4911 71.5436 92.6882 71.5436H92.6906Z" fill="white"/>
<path d="M95.0098 71.9285V71.5651L96.3611 70.0759C96.5202 69.9014 96.6509 69.7484 96.753 69.6193C96.8551 69.4902 96.9311 69.3683 96.981 69.2536C97.0308 69.1388 97.057 69.0193 97.057 68.8926C97.057 68.7468 97.0237 68.6225 96.9548 68.5173C96.886 68.4121 96.7933 68.3285 96.6746 68.2711C96.5559 68.2137 96.4229 68.1851 96.2756 68.1851C96.1189 68.1851 95.9811 68.2185 95.8647 68.2831C95.7484 68.3476 95.6581 68.4384 95.594 68.5556C95.5299 68.6727 95.499 68.809 95.499 68.9667H95.0264C95.0264 68.7253 95.081 68.5125 95.1926 68.3309C95.3043 68.1492 95.4539 68.0058 95.6463 67.903C95.8386 67.8002 96.0524 67.75 96.2922 67.75C96.5321 67.75 96.7459 67.8002 96.9311 67.903C97.1163 68.0058 97.2612 68.142 97.3681 68.3165C97.4726 68.4886 97.5248 68.6823 97.5248 68.895C97.5248 69.0456 97.4987 69.1938 97.4441 69.3396C97.3895 69.4831 97.2968 69.6432 97.1638 69.8201C97.0308 69.997 96.848 70.2121 96.6129 70.4655L95.6938 71.4552V71.4862H97.5985V71.9285H95.0145H95.0098Z" fill="white"/>
<path d="M99.8879 71.9859C99.5862 71.9859 99.3297 71.9022 99.1184 71.7372C98.907 71.5723 98.7455 71.3309 98.6315 71.0153C98.5199 70.6998 98.4629 70.3173 98.4629 69.8679C98.4629 69.4185 98.5199 69.0408 98.6315 68.7253C98.7431 68.4098 98.907 68.1683 99.1207 68.001C99.3345 67.8337 99.5886 67.75 99.8879 67.75C100.187 67.75 100.441 67.8337 100.655 68.001C100.869 68.1683 101.03 68.4098 101.142 68.7253C101.253 69.0408 101.31 69.4233 101.31 69.8679C101.31 70.3125 101.253 70.6974 101.142 71.0153C101.03 71.3309 100.869 71.5723 100.655 71.7372C100.444 71.9022 100.187 71.9859 99.8855 71.9859H99.8879ZM99.8879 71.5436C100.187 71.5436 100.417 71.3978 100.584 71.1086C100.75 70.8193 100.831 70.4058 100.831 69.8679C100.831 69.5117 100.793 69.2082 100.717 68.9572C100.641 68.7062 100.534 68.5149 100.394 68.3835C100.254 68.252 100.085 68.1851 99.8855 68.1851C99.5886 68.1851 99.3582 68.3309 99.192 68.6249C99.0258 68.9189 98.9426 69.3325 98.9426 69.8679C98.9426 70.2241 98.9806 70.5277 99.0542 70.7787C99.1279 71.0273 99.2371 71.2185 99.3772 71.3476C99.5174 71.4767 99.6884 71.5436 99.8855 71.5436H99.8879Z" fill="white"/>
<path d="M57.8018 63.2008V57.6431H59.6661C60.0247 57.6431 60.3263 57.7076 60.5662 57.8319C60.8061 57.9586 60.9866 58.1307 61.1077 58.3506C61.2288 58.5706 61.2882 58.8192 61.2882 59.0965C61.2882 59.3283 61.2502 59.5267 61.1718 59.6917C61.0934 59.8566 60.9889 59.9905 60.8559 60.0909C60.7229 60.1913 60.5733 60.2654 60.4118 60.3108V60.3538C60.5899 60.3658 60.7633 60.4303 60.9296 60.5427C61.0958 60.655 61.2336 60.8128 61.3428 61.016C61.4497 61.2192 61.5043 61.4606 61.5043 61.7427C61.5043 62.0247 61.4425 62.2733 61.319 62.4933C61.1955 62.7132 61.0056 62.8853 60.7491 63.012C60.4926 63.1387 60.1672 63.2008 59.7706 63.2008H57.8041H57.8018ZM58.3052 60.153H59.7112C59.9297 60.153 60.1197 60.1076 60.2836 60.0168C60.4474 59.9259 60.5757 59.8016 60.6659 59.6415C60.7586 59.4813 60.8037 59.2996 60.8037 59.0965C60.8037 58.8024 60.7087 58.561 60.5187 58.3769C60.3287 58.1905 60.0437 58.0996 59.6661 58.0996H58.3076V60.153H58.3052ZM58.3052 62.7443H59.7658C60.1909 62.7443 60.5068 62.6486 60.7111 62.4598C60.9153 62.271 61.0174 62.0319 61.0174 61.7427C61.0174 61.5299 60.9676 61.3387 60.8654 61.1666C60.7633 60.9945 60.6208 60.8558 60.4356 60.7554C60.2503 60.655 60.0342 60.6024 59.7872 60.6024H58.3029V62.7443H58.3052Z" fill="white"/>
<path d="M66.5821 57.6406H67.0856V61.3219C67.0856 61.6996 66.9977 62.039 66.822 62.3354C66.6462 62.6342 66.4016 62.8685 66.0881 63.0382C65.7746 63.2103 65.4113 63.294 64.9957 63.294C64.58 63.294 64.219 63.208 63.9032 63.0358C63.5873 62.8637 63.3427 62.6295 63.1669 62.3331C62.9912 62.0366 62.9033 61.6996 62.9033 61.3219V57.6406H63.4068V61.286C63.4068 61.5801 63.4733 61.843 63.6039 62.0749C63.7346 62.3068 63.9198 62.486 64.1573 62.6199C64.3948 62.7514 64.675 62.8183 64.9933 62.8183C65.3115 62.8183 65.5918 62.7514 65.8316 62.6199C66.0715 62.4884 66.2544 62.3068 66.385 62.0749C66.5156 61.843 66.5797 61.5825 66.5797 61.286V57.6406H66.5821Z" fill="white"/>
<path d="M68.4004 58.0972V57.6406H72.4045V58.0972H70.6542V63.2008H70.1507V58.0972H68.4004Z" fill="white"/>
<path d="M77.8173 59.3784H77.3091C77.2711 59.1895 77.2046 59.0126 77.1048 58.8501C77.0075 58.6875 76.8839 58.5465 76.7367 58.4246C76.5895 58.3027 76.4232 58.2094 76.2356 58.1425C76.048 58.0756 75.8461 58.0421 75.63 58.0421C75.2809 58.0421 74.9626 58.1329 74.6776 58.317C74.3903 58.4987 74.1623 58.7688 73.9889 59.1226C73.8179 59.4764 73.7324 59.909 73.7324 60.4206C73.7324 60.9321 73.8179 61.3696 73.9889 61.7234C74.1599 62.0772 74.3903 62.3425 74.6776 62.5266C74.965 62.7082 75.2832 62.7991 75.63 62.7991C75.8485 62.7991 76.0503 62.7656 76.2356 62.6987C76.4232 62.6317 76.5895 62.5385 76.7367 62.4166C76.8839 62.2971 77.0075 62.1537 77.1048 61.9911C77.2022 61.8286 77.2711 61.6517 77.3091 61.4628H77.8173C77.7722 61.7186 77.6891 61.9553 77.5656 62.1752C77.4421 62.3951 77.2853 62.5863 77.0953 62.7513C76.9053 62.9162 76.6868 63.0453 76.4422 63.1361C76.1952 63.2294 75.9245 63.2748 75.63 63.2748C75.1669 63.2748 74.7536 63.1576 74.395 62.9234C74.0364 62.6891 73.7538 62.3592 73.5495 61.9313C73.3453 61.5035 73.2432 61.0015 73.2432 60.4206C73.2432 59.8397 73.3453 59.3353 73.5495 58.9098C73.7538 58.4819 74.034 58.1521 74.395 57.9178C74.7536 57.6835 75.1669 57.5664 75.63 57.5664C75.9245 57.5664 76.1952 57.6118 76.4422 57.7027C76.6892 57.7935 76.9053 57.9226 77.0953 58.0875C77.2853 58.2525 77.4421 58.4461 77.5656 58.6636C77.6891 58.8835 77.7722 59.1202 77.8173 59.3784Z" fill="white"/>
<path d="M79.1855 63.2008V57.6431H79.689V60.1913H82.8216V57.6431H83.3251V63.2008H82.8216V60.6478H79.689V63.2008H79.1855Z" fill="white"/>
<path d="M84.978 63.2008V57.6431H88.1818V58.0996H85.4814V60.1913H88.0108V60.6478H85.4814V62.7467H88.234V63.2032H84.9756L84.978 63.2008Z" fill="white"/>
<path d="M89.6631 63.2008V57.6431H91.4443C91.8362 57.6431 92.1639 57.7148 92.4275 57.8558C92.6911 57.9969 92.8906 58.1953 93.0236 58.4439C93.1566 58.6949 93.2255 58.9817 93.2255 59.3044C93.2255 59.6271 93.159 59.914 93.0236 60.1626C92.8906 60.4112 92.6911 60.6048 92.4299 60.7435C92.1663 60.8821 91.8409 60.9514 91.4538 60.9514H89.9362V60.4877H91.4419C91.7293 60.4877 91.9692 60.4399 92.1615 60.3443C92.3539 60.2486 92.4964 60.1124 92.5914 59.9355C92.6864 59.7586 92.7339 59.5482 92.7339 59.3068C92.7339 59.0654 92.6864 58.8526 92.5914 58.671C92.4964 58.4893 92.3539 58.3482 92.1615 58.2478C91.9692 58.1474 91.7293 58.0996 91.4372 58.0996H90.1737V63.2032H89.6702L89.6631 63.2008ZM92.0974 60.6933L93.4559 63.2008H92.874L91.5274 60.6933H92.0974Z" fill="white"/>
<path d="M99.9544 59.0321C99.9235 58.7237 99.7882 58.4775 99.5483 58.2934C99.3084 58.1118 99.0044 58.0185 98.6387 58.0185C98.3822 58.0185 98.1566 58.064 97.9595 58.1524C97.7647 58.2408 97.6127 58.3628 97.5011 58.5205C97.3895 58.6759 97.3349 58.8552 97.3349 59.0536C97.3349 59.1994 97.3657 59.3285 97.4299 59.4385C97.494 59.5484 97.5771 59.644 97.684 59.7229C97.7908 59.8018 97.9096 59.8687 98.0402 59.9261C98.1708 59.9811 98.3015 60.0289 98.4345 60.0671L99.0163 60.2345C99.1921 60.2823 99.3678 60.3468 99.5459 60.4209C99.7217 60.4974 99.8832 60.593 100.03 60.7078C100.178 60.8225 100.294 60.9636 100.384 61.1285C100.475 61.2934 100.517 61.4918 100.517 61.7237C100.517 62.0201 100.441 62.2879 100.287 62.5245C100.135 62.7612 99.914 62.95 99.6291 63.0887C99.3441 63.2273 98.9997 63.2966 98.6007 63.2966C98.2255 63.2966 97.8977 63.2345 97.6222 63.1078C97.3444 62.9811 97.1282 62.809 96.9691 62.5843C96.81 62.362 96.7221 62.1038 96.7031 61.8098H97.2209C97.2399 62.0297 97.3111 62.2138 97.437 62.3667C97.5629 62.5197 97.7267 62.6345 97.9286 62.7134C98.1305 62.7922 98.3537 62.8305 98.6031 62.8305C98.8786 62.8305 99.1232 62.7851 99.3369 62.6918C99.5507 62.5986 99.7217 62.4695 99.8428 62.3022C99.9663 62.1349 100.028 61.9389 100.028 61.7165C100.028 61.5277 99.9805 61.3699 99.8832 61.2432C99.7858 61.1165 99.6504 61.009 99.4771 60.9205C99.3037 60.8345 99.1018 60.758 98.8738 60.6887L98.2136 60.4926C97.7814 60.3612 97.4441 60.1819 97.2042 59.9524C96.9644 59.7229 96.8456 59.4289 96.8456 59.0727C96.8456 58.7739 96.924 58.511 97.0831 58.2839C97.2422 58.0568 97.4584 57.8799 97.7315 57.7508C98.0046 57.6241 98.311 57.5596 98.6506 57.5596C98.9902 57.5596 99.2989 57.6241 99.5626 57.7484C99.8262 57.8751 100.038 58.0496 100.192 58.2719C100.346 58.4942 100.429 58.7452 100.441 59.0273H99.952L99.9544 59.0321Z" fill="white"/>
<path d="M101.916 63.2008V57.6431H102.42V60.1913H105.552V57.6431H106.056V63.2008H105.552V60.6478H102.42V63.2008H101.916Z" fill="white"/>
<path d="M112.235 60.4205C112.235 60.999 112.133 61.5034 111.929 61.9313C111.724 62.3592 111.442 62.6915 111.083 62.9257C110.725 63.16 110.311 63.2771 109.846 63.2771C109.38 63.2771 108.967 63.16 108.608 62.9257C108.25 62.6915 107.97 62.3592 107.765 61.9313C107.561 61.5034 107.459 60.999 107.459 60.4205C107.459 59.8421 107.561 59.3377 107.765 58.9098C107.97 58.4819 108.25 58.1496 108.611 57.9154C108.969 57.6811 109.383 57.564 109.846 57.564C110.309 57.564 110.725 57.6811 111.083 57.9154C111.442 58.1496 111.724 58.4819 111.929 58.9098C112.133 59.3377 112.235 59.8421 112.235 60.4205ZM111.743 60.4205C111.743 59.9233 111.66 59.4954 111.496 59.1417C111.33 58.7855 111.105 58.5154 110.82 58.3265C110.535 58.1377 110.209 58.0444 109.846 58.0444C109.482 58.0444 109.162 58.1377 108.874 58.3265C108.589 58.5154 108.361 58.7855 108.195 59.1417C108.029 59.4954 107.946 59.9233 107.946 60.4229C107.946 60.9225 108.029 61.3456 108.193 61.7018C108.359 62.0556 108.585 62.3281 108.87 62.517C109.155 62.7058 109.48 62.8014 109.843 62.8014C110.207 62.8014 110.532 62.7082 110.817 62.5193C111.105 62.3305 111.33 62.0604 111.496 61.7042C111.663 61.348 111.743 60.9225 111.741 60.4253L111.743 60.4205Z" fill="white"/>
<path d="M113.637 63.2008V57.6431H115.418C115.81 57.6431 116.138 57.7196 116.401 57.8702C116.665 58.0208 116.864 58.2263 116.997 58.4845C117.13 58.7427 117.199 59.0343 117.199 59.3594C117.199 59.6845 117.133 59.9761 117 60.2343C116.867 60.4949 116.67 60.7004 116.406 60.851C116.142 61.0016 115.817 61.0781 115.427 61.0781H114.026V60.6216H115.416C115.705 60.6216 115.945 60.5666 116.135 60.4566C116.325 60.3467 116.468 60.1984 116.563 60.0072C116.658 59.8184 116.705 59.6008 116.705 59.3594C116.705 59.118 116.658 58.9004 116.563 58.7116C116.468 58.5227 116.325 58.3722 116.133 58.2646C115.94 58.157 115.698 58.102 115.406 58.102H114.143V63.2056H113.639L113.637 63.2008Z" fill="white"/>
<path d="M13.6982 38.0437V39.882C13.6982 40.8023 13.5249 41.6724 13.1805 42.4923C12.8338 43.3146 12.3564 44.0461 11.7484 44.6868C11.1404 45.3274 10.4256 45.8366 9.61097 46.2119C8.79399 46.5872 7.91526 46.776 6.97478 46.776C6.17205 46.776 5.35507 46.6636 4.52622 46.4413C3.69499 46.219 2.94926 45.8294 2.28427 45.2724C1.61929 44.7154 1.07305 43.9983 0.645562 43.121C0.215698 42.2437 0.00195312 41.1226 0.00195312 39.7577V23.3808C0.00195312 22.4055 0.168199 21.5019 0.500691 20.6652C0.833183 19.8286 1.30342 19.1067 1.91141 18.4923C2.51939 17.8804 3.24612 17.3999 4.0916 17.0509C4.93471 16.7019 5.87044 16.5298 6.89404 16.5298C8.88661 16.5298 10.5063 17.1848 11.7508 18.4923C12.3588 19.133 12.8361 19.8931 13.1829 20.7704C13.5296 21.6477 13.7006 22.6015 13.7006 23.6318V25.3027H9.4661V23.8828C9.4661 23.0461 9.23098 22.3242 8.76074 21.7099C8.2905 21.0979 7.65402 20.7919 6.85129 20.7919C5.79919 20.7919 5.10095 21.1194 4.75421 21.7744C4.40747 22.4294 4.23648 23.2565 4.23648 24.2605V39.4684C4.23648 40.3314 4.4241 41.0557 4.79696 41.6413C5.16983 42.227 5.84194 42.5186 6.81091 42.5186C7.08641 42.5186 7.38565 42.4708 7.70389 42.3728C8.02213 42.2748 8.319 42.1146 8.59687 41.8923C8.84624 41.67 9.05286 41.364 9.2191 40.9744C9.38535 40.5848 9.46847 40.0971 9.46847 39.5115V38.0485H13.703L13.6982 38.0437Z" fill="white"/>
<path d="M19.3848 46.5249L25.9847 16.7783H29.5139L36.1139 46.5249H31.8793L30.6349 40.1329H24.8661L23.6217 46.5249H19.3871H19.3848ZM29.844 36.1217L27.7683 25.3433H27.6852L25.6095 36.1217H29.844Z" fill="white"/>
<path d="M42.3389 46.5249V16.7783H49.1454C54.1257 16.7783 56.617 19.6899 56.617 25.5106C56.617 27.2652 56.3463 28.7568 55.8072 29.9807C55.2681 31.207 54.3204 32.1943 52.9644 32.9472L57.5314 46.5249H53.0475L49.1051 33.8245H46.5734V46.5249H42.3389ZM46.5734 20.7895V30.0644H48.9816C49.7297 30.0644 50.3234 29.9592 50.7675 29.7512C51.2093 29.5433 51.556 29.2445 51.8054 28.8524C52.0263 28.4628 52.1783 27.9823 52.2614 27.411C52.3445 26.8397 52.3849 26.1775 52.3849 25.4269C52.3849 24.6763 52.3421 24.0142 52.2614 23.4429C52.1783 22.8715 52.012 22.3767 51.7626 21.9608C51.2378 21.1815 50.2403 20.7919 48.775 20.7919H46.5758L46.5734 20.7895Z" fill="white"/>
<path d="M64.0068 46.5249V16.7783H68.0751L74.4685 34.7018H74.5516V16.7783H78.7861V46.5249H74.8009L68.3245 28.6421H68.2414V46.5249H64.0068Z" fill="white"/>
<path d="M86.8779 46.5249V16.7783H91.1125V46.5249H86.8779Z" fill="white"/>
<path d="M112.819 38.0437V39.882C112.819 40.8023 112.646 41.6724 112.302 42.4923C111.955 43.3146 111.477 44.0461 110.87 44.6868C110.262 45.3274 109.547 45.8366 108.732 46.2119C107.915 46.5872 107.036 46.776 106.096 46.776C105.293 46.776 104.476 46.6636 103.647 46.4413C102.816 46.219 102.07 45.8294 101.405 45.2724C100.74 44.7154 100.194 43.9983 99.7667 43.121C99.3368 42.2437 99.123 41.1226 99.123 39.7577V23.3808C99.123 22.4055 99.2893 21.5019 99.6218 20.6652C99.9543 19.8286 100.425 19.1067 101.033 18.4923C101.64 17.8804 102.367 17.3999 103.213 17.0509C104.056 16.7019 104.992 16.5298 106.015 16.5298C108.008 16.5298 109.627 17.1848 110.872 18.4923C111.48 19.133 111.957 19.8931 112.304 20.7704C112.651 21.6477 112.822 22.6015 112.822 23.6318V25.3027H108.587V23.8828C108.587 23.0461 108.352 22.3242 107.882 21.7099C107.412 21.0979 106.775 20.7919 105.972 20.7919C104.92 20.7919 104.222 21.1194 103.875 21.7744C103.529 22.4294 103.358 23.2565 103.358 24.2605V39.4684C103.358 40.3314 103.545 41.0557 103.918 41.6413C104.291 42.227 104.963 42.5186 105.932 42.5186C106.208 42.5186 106.507 42.4708 106.825 42.3728C107.143 42.2748 107.44 42.1146 107.718 41.8923C107.967 41.67 108.174 41.364 108.34 40.9744C108.506 40.5848 108.59 40.0971 108.59 39.5115V38.0485H112.824L112.819 38.0437Z" fill="white"/>
<path d="M120.417 46.5249V16.7783H133.035V20.7895H124.649V29.5217H131.954V33.5329H124.649V42.2652H133.035V46.5273H120.417V46.5249Z" fill="white"/>
<path d="M139.925 46.5249V16.7783H146.731C151.712 16.7783 154.203 19.6899 154.203 25.5106C154.203 27.2652 153.932 28.7568 153.393 29.9807C152.854 31.207 151.906 32.1943 150.55 32.9472L155.117 46.5249H150.633L146.691 33.8245H144.159V46.5249H139.925ZM144.159 20.7895V30.0644H146.568C147.316 30.0644 147.909 29.9592 148.353 29.7512C148.795 29.5433 149.142 29.2445 149.391 28.8524C149.612 28.4628 149.764 27.9823 149.847 27.411C149.93 26.8397 149.971 26.1775 149.971 25.4269C149.971 24.6763 149.928 24.0142 149.847 23.4429C149.764 22.8715 149.598 22.3767 149.349 21.9608C148.824 21.1815 147.826 20.7919 146.361 20.7919H144.162L144.159 20.7895Z" fill="white"/>
<path d="M164.954 46.5249V33.9488L159.143 16.7783H163.626L167.03 28.6014H167.113L170.516 16.7783H175L169.189 33.9488V46.5249H164.954Z" fill="white"/>
</g>
<defs>
<clipPath id="clip0_555_252">
<rect width="175" height="72" fill="white"/>
</clipPath>
</defs>
</svg>
